<?xml version="1.0" encoding="utf-8"?>
<!-- Generator: Adobe Illustrator 16.0.3, SVG Export Plug-In . SVG Version: 6.00 Build 0)  -->
<!DOCTYPE svg PUBLIC "-//W3C//DTD SVG 1.1//EN" "http://www.w3.org/Graphics/SVG/1.1/DTD/svg11.dtd">
<svg version="1.1" id="molde_moletom_verso" xmlns="http://www.w3.org/2000/svg" xmlns:xlink="http://www.w3.org/1999/xlink" x="0px" y="0px" 
	width="460px" height="478px" viewBox="0 0 460 478" enable-background="new 0 0 460 478" xml:space="preserve" 
	image-rendering="optimizeQuality" text-rendering="geometricPrecision" shape-rendering="geometricPrecision">
	<path d="M15.095,475.28c1.532,0.521,3.751,1.294,5.417,1.761c1.666,0.466,2.782,0.627,5.011,0.711s5.569,0.091,8.74-0.518
	c3.17-0.609,6.168-1.835,8.37-2.842c2.203-1.007,3.611-1.794,5.114-2.761c1.503-0.966,3.1-2.111,4.278-3.338
	c1.178-1.225,1.937-2.531,2.375-3.381c0.438-0.849,0.555-1.244,0.526-1.714c-0.03-0.471-0.205-1.018-0.497-2.024
	c-0.292-1.006-0.7-2.473-1.039-3.724s-0.61-2.287-0.875-3.786c-0.266-1.499-0.529-3.461-0.751-5.161
	c-0.223-1.699-0.405-3.137-0.511-4.114s-0.135-1.495-0.15-1.755c-0.014-0.259-0.014-0.259,0.34-1.042
	c0.354-0.784,1.061-2.353,1.791-4.198c0.73-1.846,1.481-3.969,2.061-5.421c0.581-1.451,0.988-2.231,1.269-3.089
	s0.435-1.791,0.459-2.517c0.026-0.727-0.076-1.244-0.615-1.903c-0.541-0.661-1.518-1.463-2.19-1.952
	c-0.67-0.488-1.035-0.663-1.217-0.751c-0.183-0.087-0.183-0.087-0.183-0.087s0,0,0.278-1.105c0.277-1.105,0.831-3.316,1.371-5.435
	c0.54-2.119,1.064-4.147,1.59-6.383c0.525-2.235,1.05-4.68,1.441-6.719c0.39-2.039,0.646-3.673,0.993-5.33
	c0.349-1.658,0.79-3.34,1.062-4.895c0.271-1.556,0.374-2.986,0.545-4.387s0.412-2.772,0.648-4.325
	c0.238-1.554,0.471-3.29,0.708-4.946c0.237-1.656,0.478-3.231,0.657-4.734c0.178-1.502,0.295-2.932,0.459-4.246
	c0.165-1.312,0.375-2.509,0.581-4.004c0.204-1.495,0.4-3.289,0.664-5.074c0.263-1.782,0.59-3.555,0.933-5.467
	c0.343-1.91,0.701-3.961,1.087-5.979c0.387-2.016,0.802-4,1.243-6.367c0.442-2.367,0.909-5.117,1.31-7.211
	c0.401-2.094,0.737-3.53,1.018-5.344c0.281-1.813,0.506-4.001,0.667-5.542c0.16-1.541,0.255-2.435,0.33-3.168
	c0.075-0.732,0.13-1.306,0.17-1.618c0.04-0.314,0.065-0.369,0.562-0.764c0.496-0.393,1.463-1.127,2.442-1.905
	c0.979-0.778,1.971-1.603,2.675-2.485c0.703-0.883,1.119-1.824,1.353-2.68c0.233-0.855,0.284-1.625,0.147-2.547
	c-0.136-0.924-0.461-1.998-0.762-2.891s-0.579-1.6-0.811-2.373c-0.231-0.772-0.417-1.611-0.548-2.147
	c-0.131-0.536-0.208-0.771-0.246-0.887s-0.038-0.116,0.407-0.409c0.445-0.291,1.335-0.875,2.347-1.608
	c1.012-0.732,2.146-1.616,2.946-2.37c0.799-0.755,1.261-1.383,1.727-2.127c0.465-0.744,0.931-1.605,1.329-2.691
	c0.398-1.087,0.726-2.4,1.353-4.994c0.627-2.593,1.554-6.467,2.695-10.468c1.141-4,2.499-8.13,3.986-12.287
	c1.488-4.158,3.108-8.345,4.552-12.438c1.444-4.093,2.714-8.09,3.582-10.624c0.869-2.536,1.335-3.608,1.864-4.421
	s1.12-1.368,1.674-1.787c0.555-0.42,1.073-0.705,2.014-1.135c0.941-0.431,2.306-1.007,3.339-1.819
	c1.035-0.814,1.738-1.865,2.102-2.734c0.363-0.87,0.385-1.559,0.228-2.134s-0.493-1.034-0.667-1.346
	c-0.175-0.312-0.19-0.476-0.276-0.908c-0.086-0.432-0.243-1.132-0.267-1.609c-0.025-0.477,0.083-0.73,0.121-1.059
	c0.039-0.327,0.007-0.728,0.009-0.93c0.002-0.203,0.037-0.206,0.138-0.001c0.101,0.205,0.27,0.62,0.447,1.344
	c0.178,0.724,0.366,1.761,0.562,2.61c0.197,0.85,0.401,1.514,0.631,2.236c0.229,0.722,0.484,1.502,0.692,2.207
	c0.208,0.704,0.369,1.331,0.542,1.995c0.174,0.664,0.36,1.364,0.789,2.701c0.429,1.336,1.099,3.31,1.731,5.208
	c0.63,1.898,1.221,3.723,1.754,5.396s1.007,3.199,1.539,4.924c0.533,1.726,1.123,3.651,1.722,5.518
	c0.599,1.868,1.204,3.678,1.755,5.337s1.046,3.169,1.47,4.442c0.422,1.273,0.772,2.309,1.382,4.18
	c0.609,1.871,1.477,4.578,2.163,6.729c0.686,2.153,1.189,3.75,1.426,5.074s0.208,2.375,0.274,3.535
	c0.065,1.159,0.226,2.428,0.449,3.617c0.222,1.189,0.506,2.298,0.686,2.959c0.178,0.658,0.251,0.871,0.31,1.014
	s0.102,0.215-0.102,0.973c-0.205,0.76-0.656,2.204-1.021,3.688c-0.365,1.483-0.643,3.009-0.879,4.183
	c-0.237,1.175-0.434,1.999-0.701,2.914c-0.266,0.916-0.602,1.922-0.838,2.722c-0.237,0.798-0.376,1.39-0.482,2.275
	c-0.106,0.887-0.179,2.067-0.211,3.414c-0.033,1.347-0.026,2.856,0.124,4.366c0.149,1.51,0.441,3.02,0.916,4.658
	c0.474,1.637,1.13,3.402,1.82,4.813c0.689,1.412,1.412,2.47,2.345,3.728c0.934,1.258,2.079,2.717,2.98,3.812
	c0.9,1.095,1.557,1.823,1.885,2.188c0.329,0.365,0.329,0.365-0.292,1c-0.62,0.635-1.86,1.903-2.873,2.929
	c-1.015,1.024-1.802,1.805-2.378,2.323c-0.577,0.518-0.941,0.772-1.393,1.064c-0.453,0.292-0.993,0.621-1.605,1.182
	c-0.613,0.563-1.298,1.357-1.821,2.258c-0.521,0.9-0.878,1.908-1.126,3.352c-0.248,1.445-0.387,3.328-0.329,5.002
	c0.059,1.674,0.313,3.14,0.565,4.481c0.252,1.343,0.5,2.561,0.711,3.338c0.211,0.776,0.387,1.112,0.317,2.159
	c-0.069,1.047-0.383,2.805-0.648,4.504c-0.267,1.699-0.486,3.342-0.679,4.976c-0.194,1.634-0.362,3.26-0.478,4.719
	c-0.117,1.459-0.183,2.75-0.201,3.743c-0.018,0.992,0.011,1.685-0.091,2.681c-0.102,0.995-0.335,2.294-0.485,3.516
	c-0.149,1.222-0.215,2.368-0.095,3.558c0.121,1.191,0.428,2.428,0.835,3.504c0.409,1.075,0.919,1.99,1.423,2.868
	c0.502,0.877,0.999,1.716,1.302,2.584c0.303,0.868,0.412,1.766,0.602,2.786c0.19,1.021,0.46,2.167,0.646,3.301
	c0.186,1.135,0.288,2.258,0.31,3.437c0.022,1.178-0.036,2.41-0.252,3.694c-0.215,1.284-0.586,2.619-0.853,3.917
	c-0.266,1.299-0.427,2.561-0.613,4.14c-0.186,1.58-0.398,3.477-0.7,5.308c-0.304,1.831-0.697,3.596-0.843,5.081
	c-0.146,1.483-0.043,2.688-0.087,3.512s-0.234,1.269-0.329,1.87c-0.095,0.603-0.095,1.361-0.106,2.452
	c-0.011,1.09-0.033,2.513-0.109,3.913c-0.077,1.401-0.208,2.779-0.357,4.443c-0.149,1.663-0.317,3.61-0.593,5.744
	c-0.275,2.134-0.659,4.453-0.988,6.127c-0.33,1.675-0.608,2.703-0.833,3.567c-0.226,0.865-0.401,1.564-0.627,2.487
	c-0.226,0.923-0.503,2.068-0.613,2.702c-0.109,0.635-0.051,0.759,0.237,1.142c0.289,0.384,0.807,1.025,2.12,1.693
	c1.313,0.667,3.421,1.359,5.295,1.859c1.875,0.5,3.517,0.807,5.424,1.011c1.908,0.204,4.082,0.307,6.285,0.383
	s4.435,0.128,6.54,0.139c2.104,0.011,4.081-0.019,7.028-0.019s6.863,0.029,10.391,0.037c3.527,0.007,6.664-0.008,9.571,0
	c2.906,0.007,5.583,0.036,8.917,0.143c3.333,0.105,7.324,0.287,10.734,0.467c3.411,0.179,6.241,0.354,8.892,0.455
	c2.652,0.103,5.125,0.132,7.375,0.187s4.278,0.135,7.181,0.229c2.904,0.095,6.682,0.205,10.752,0.277
	c4.071,0.073,8.434,0.109,11.756,0.143c3.322,0.032,5.605,0.062,8.582,0.055c2.977-0.008,6.645-0.051,10.617-0.081
	c3.972-0.029,8.247-0.043,11.828-0.102c3.582-0.059,6.471-0.16,9.614-0.288s6.544-0.281,10.161-0.38
	c3.619-0.098,7.455-0.142,11.333-0.211s7.794-0.165,11.241-0.212c3.446-0.048,6.423-0.048,9.06-0.161
	c2.638-0.112,4.935-0.338,7.441-0.586c2.505-0.249,5.219-0.518,7.579-1.008c2.359-0.488,4.365-1.196,5.897-1.826
	c1.531-0.631,2.59-1.186,3.278-1.683c0.689-0.495,1.011-0.933,1.189-1.25s0.216-0.515,0.044-1.346
	c-0.172-0.832-0.551-2.298-0.988-4.11c-0.438-1.813-0.934-3.973-1.295-5.497s-0.587-2.415-0.897-4.154s-0.704-4.33-1.112-6.831
	c-0.408-2.503-0.832-4.917-1.018-6.566c-0.186-1.647-0.135-2.531-0.173-3.168c-0.039-0.639-0.167-1.033-0.294-1.338
	c-0.128-0.305-0.255-0.52-0.254-0.743c0.002-0.225,0.133-0.458,0.019-1.861c-0.114-1.401-0.477-3.973-0.897-6.71
	s-0.903-5.642-1.318-7.994c-0.416-2.353-0.766-4.154-0.752-5.988c0.016-1.835,0.394-3.702,0.605-6.059
	c0.212-2.355,0.256-5.201,0.413-7.467c0.156-2.264,0.426-3.949,0.547-5.634c0.12-1.685,0.091-3.371,0.171-5.317
	c0.081-1.948,0.271-4.158,0.368-6.391c0.1-2.232,0.106-4.486,0.11-5.712c0.003-1.226,0.003-1.422,0.003-1.521
	c0-0.1,0-0.1,0.409-0.88c0.408-0.78,1.225-2.341,1.718-3.854c0.492-1.514,0.659-2.98,0.686-4.309
	c0.025-1.326-0.091-2.516-0.474-3.606c-0.383-1.09-1.032-2.083-1.415-2.647c-0.384-0.566-0.5-0.704-0.621-0.865
	c-0.12-0.16-0.244-0.343-0.372-0.518s-0.259-0.343-0.579-0.842c-0.322-0.5-0.833-1.332-1.416-2.27
	c-0.584-0.938-1.239-1.98-1.984-3.265c-0.743-1.283-1.575-2.808-2.465-4.347c-0.891-1.539-1.839-3.094-2.704-4.525
	c-0.866-1.432-1.651-2.74-2.043-3.395c-0.393-0.656-0.393-0.656-0.039-0.985c0.354-0.33,1.063-0.991,1.873-1.729
	c0.813-0.738,1.728-1.556,2.575-2.538c0.849-0.983,1.629-2.132,2.269-3.119c0.641-0.986,1.141-1.811,1.828-3.063
	c0.688-1.252,1.563-2.935,2.2-4.512c0.639-1.578,1.04-3.051,1.299-4.503c0.259-1.45,0.376-2.881,0.471-4.304
	c0.095-1.422,0.167-2.838,0.146-4.299c-0.023-1.464-0.139-2.974-0.3-4.291c-0.161-1.316-0.365-2.439-0.668-3.354
	s-0.703-1.623-0.995-2.542c-0.292-0.92-0.475-2.051-0.784-3.743c-0.311-1.692-0.748-3.945-1.102-5.978
	c-0.354-2.031-0.624-3.84-0.77-5.135s-0.168-2.076-0.179-2.83c-0.011-0.756-0.011-1.485,0.327-2.875
	c0.34-1.39,1.019-3.439,1.716-5.62c0.696-2.182,1.41-4.494,2.111-6.726c0.7-2.232,1.386-4.385,2.09-6.46s1.427-4.074,2.071-6.019
	c0.646-1.943,1.215-3.833,1.74-5.656s1.007-3.582,1.48-5.216c0.475-1.634,0.941-3.144,1.455-4.873
	c0.515-1.729,1.076-3.677,1.52-5.245s0.769-2.757,0.93-3.365c0.162-0.607,0.162-0.633,0.224-0.576
	c0.06,0.056,0.18,0.195,0.356,0.392s0.411,0.452,0.532,0.593c0.123,0.141,0.133,0.166,0.14,0.228
	c0.005,0.062,0.005,0.161-0.094,0.72s-0.296,1.581-0.433,2.445c-0.136,0.865-0.213,1.572-0.14,2.3s0.296,1.475,0.6,2.141
	c0.305,0.666,0.691,1.248,1.443,1.692c0.75,0.442,1.866,0.745,2.615,0.921c0.747,0.176,1.126,0.223,1.605,0.399
	c0.48,0.177,1.061,0.483,1.515,0.983c0.453,0.5,0.782,1.191,1.152,1.975c0.37,0.782,0.782,1.654,1.171,2.61
	c0.389,0.955,0.753,1.995,1.11,2.957c0.357,0.964,0.707,1.85,1.105,2.899c0.397,1.051,0.842,2.266,1.188,3.269
	c0.348,1.003,0.595,1.795,0.936,2.626c0.341,0.832,0.774,1.703,1.168,2.756c0.392,1.052,0.742,2.285,1.148,3.346
	c0.407,1.063,0.87,1.951,1.325,3.027c0.457,1.076,0.905,2.338,1.3,3.387c0.394,1.049,0.732,1.885,1.086,2.72s0.723,1.67,1.021,2.487
	c0.299,0.816,0.528,1.616,0.902,2.553c0.375,0.938,0.893,2.014,1.364,2.957c0.473,0.941,0.899,1.752,1.226,2.354
	s0.553,0.996,0.686,1.615c0.134,0.621,0.173,1.467,0.309,3.006c0.135,1.537,0.364,3.768,0.545,5.912
	c0.182,2.143,0.313,4.201,0.783,5.846s1.28,2.877,2.063,3.984c0.781,1.107,1.537,2.088,2.341,2.908
	c0.805,0.822,1.658,1.48,2.012,1.824c0.354,0.342,0.208,0.369-0.017,0.805c-0.224,0.436-0.526,1.281-0.791,2.467
	s-0.491,2.711-0.553,4.223c-0.063,1.515,0.04,3.018,0.212,4.354c0.172,1.334,0.411,2.501,0.784,3.566
	c0.372,1.064,0.875,2.027,1.418,2.892c0.544,0.864,1.127,1.631,1.952,2.601c0.824,0.971,1.89,2.146,2.659,3.258
	s1.243,2.162,1.586,3.414c0.343,1.25,0.555,2.702,0.711,4.025c0.157,1.324,0.259,2.521,0.551,3.838s0.773,2.754,1.251,5.029
	c0.479,2.276,0.952,5.391,1.368,7.82c0.416,2.429,0.772,4.173,1.084,6.108c0.31,1.937,0.571,4.067,0.813,5.837
	c0.24,1.768,0.459,3.176,0.634,4.563c0.177,1.386,0.308,2.75,0.467,4.117c0.161,1.368,0.352,2.739,0.449,4.493
	c0.099,1.755,0.105,3.893,0.397,5.884s0.868,3.837,1.112,5.066c0.245,1.229,0.157,1.842-0.021,2.65
	c-0.18,0.811-0.449,1.817-0.738,2.791c-0.287,0.974-0.593,1.914-0.783,3.027c-0.189,1.112-0.263,2.396-0.296,3.936
	c-0.033,1.539-0.025,3.333,0.1,5.376c0.123,2.042,0.363,4.333,0.703,6.229c0.339,1.897,0.776,3.399,1.011,4.217
	c0.233,0.816,0.263,0.948,0.072,1.44c-0.189,0.492-0.599,1.346-0.824,2.155c-0.226,0.811-0.27,1.576-0.248,2.411
	c0.022,0.835,0.109,1.74,0.35,2.761c0.241,1.021,0.635,2.159,1.021,3.09c0.387,0.93,0.766,1.651,1.32,2.421s1.284,1.587,1.784,2.142
	c0.499,0.554,0.77,0.847,0.904,1.024c0.135,0.179,0.135,0.245,0.041,0.996c-0.095,0.752-0.285,2.188-0.539,3.286
	s-0.57,1.856-0.733,2.346c-0.162,0.488-0.169,0.707-0.093,1.349c0.077,0.642,0.236,1.707,0.646,2.819s1.065,2.272,1.758,3.268
	c0.693,0.997,1.423,1.828,2.371,2.664c0.949,0.835,2.116,1.674,2.97,2.235s1.393,0.847,1.979,1.119
	c0.588,0.273,1.222,0.537,1.94,0.959c0.719,0.424,1.521,1.008,2.94,1.603c1.418,0.595,3.454,1.199,5.24,1.491
	c1.788,0.291,3.327,0.27,4.954,0.276c1.626,0.008,3.341,0.044,5.277-0.054c1.937-0.099,4.096-0.332,5.854-0.705
	c1.758-0.371,3.114-0.882,4.184-1.229c1.068-0.346,1.849-0.529,2.662-0.947c0.813-0.42,1.66-1.077,2.225-1.683
	c0.565-0.605,0.851-1.16,1.069-2.104s0.371-2.279,0.564-3.836c0.193-1.559,0.427-3.338,0.492-5.242
	c0.066-1.903-0.035-3.932-0.131-5.183c-0.095-1.251-0.183-1.725-0.227-1.963c-0.043-0.236-0.043-0.236,0.438-0.827
	c0.482-0.591,1.445-1.772,2.164-2.98c0.719-1.207,1.192-2.439,1.491-3.716c0.3-1.276,0.423-2.598,0.368-4.02
	s-0.287-2.947-0.566-4.03c-0.28-1.084-0.604-1.726-0.767-2.046c-0.162-0.322-0.162-0.322,0.334-0.904
	c0.495-0.584,1.488-1.751,2.206-2.81c0.719-1.058,1.164-2.006,1.287-3.358c0.124-1.354-0.072-3.111-0.386-5.541
	c-0.313-2.429-0.744-5.529-1.564-12.356s-2.032-17.384-2.638-25.272s-0.605-13.113-0.854-19.926
	c-0.247-6.813-0.744-15.217-1.061-21.279c-0.318-6.061-0.456-9.781-0.843-13.133s-1.021-6.336-1.514-8.572
	c-0.493-2.234-0.843-3.725-0.708-7.017c0.135-3.294,0.756-8.393,0.992-12.431c0.237-4.038,0.091-7.014-0.42-9.566
	c-0.51-2.553-1.386-4.684-2.159-6.135c-0.772-1.452-1.444-2.226-2.37-3.341c-0.927-1.116-2.108-2.575-3.158-4.282
	c-1.052-1.707-1.97-3.662-2.978-6.208c-1.006-2.546-2.101-5.683-2.969-9.257c-0.867-3.575-1.509-7.586-2.414-11.869
	c-0.904-4.282-2.072-8.834-3.217-13.385c-1.146-4.552-2.269-9.104-3.406-13.379c-1.139-4.274-2.291-8.271-3.677-12.386
	c-1.386-4.115-3.006-8.346-4.37-12.131s-2.473-7.127-3.406-10.314c-0.934-3.188-1.692-6.223-2.385-9.833
	c-0.693-3.611-1.321-7.798-1.919-11.088c-0.599-3.29-1.167-5.682-2.007-8.841c-0.838-3.158-1.946-7.082-3.465-11.532
	c-1.517-4.45-3.442-9.425-5.405-13.692c-1.962-4.267-3.96-7.828-5.631-10.716c-1.67-2.888-3.013-5.107-4.778-7.543
	c-1.765-2.437-3.953-5.092-6.295-7.717c-2.342-2.626-4.837-5.224-7.255-7.335c-2.418-2.112-4.76-3.739-6.937-5.136
	c-2.178-1.397-4.191-2.564-6.395-3.585c-2.203-1.021-4.596-1.896-7.437-2.834c-2.842-0.938-6.131-1.937-9.684-3.028
	c-3.553-1.09-7.367-2.271-10.018-3.089c-2.65-0.816-4.135-1.269-4.877-1.495c-0.742-0.226-0.742-0.226-0.742-0.226s0,0,0.105-0.387
	s0.317-1.16,0.317-2.226c0-1.064-0.212-2.421-0.631-3.301c-0.419-0.878-1.047-1.28-1.415-1.521c-0.368-0.24-0.479-0.321-0.591-0.846
	c-0.113-0.525-0.23-1.496-0.794-2.856c-0.563-1.36-1.574-3.111-2.166-4.742c-0.593-1.63-0.768-3.14-1.122-4.705
	c-0.354-1.565-0.886-3.184-1.302-4.515s-0.716-2.375-1.357-3.286c-0.642-0.912-1.627-1.693-3.146-2.524
	c-1.521-0.831-3.579-1.714-5.909-2.524c-2.331-0.81-4.935-1.546-7.4-2.024s-4.793-0.697-7.875-1.072
	c-3.082-0.376-6.919-0.909-9.337-1.222c-2.418-0.314-3.418-0.409-3.918-0.46c-0.499-0.051-0.499-0.058-0.499-0.065
	c0-0.008,0-0.015-0.091-1.102c-0.092-1.086-0.273-3.253-0.58-5.453s-0.737-4.431-1.379-6.295s-1.496-3.36-2.641-4.99
	c-1.146-1.63-2.583-3.396-4.092-4.854c-1.512-1.459-3.094-2.611-4.567-3.534c-1.474-0.923-2.837-1.616-4.106-2.19
	s-2.444-1.03-3.084-1.249c-0.641-0.219-0.746-0.201-0.885-0.124s-0.311,0.211-0.43,0.288c-0.121,0.077-0.19,0.095-0.348-0.018
	c-0.156-0.113-0.4-0.358-0.592-0.547c-0.192-0.19-0.33-0.325-0.677-0.431s-0.901-0.183-1.679-0.271s-1.779-0.188-3.106-0.389
	c-1.326-0.2-2.978-0.499-4.29-0.653c-1.311-0.155-2.281-0.166-3.396-0.241c-1.113-0.075-2.372-0.213-3.822-0.451
	c-1.449-0.237-3.091-0.571-4.637-0.805c-1.547-0.234-2.998-0.365-4.41-0.444c-1.411-0.078-2.782-0.104-4.145,0.035
	c-1.363,0.139-2.716,0.441-4.067,0.706c-1.351,0.265-2.701,0.49-3.978,0.666c-1.276,0.176-2.48,0.3-3.768,0.433
	c-1.288,0.133-2.659,0.276-3.919,0.409s-2.408,0.257-3.77,0.44c-1.36,0.184-2.932,0.429-4.32,0.584
	c-1.387,0.155-2.591,0.221-3.25,0.375c-0.657,0.155-0.771,0.4-0.856,0.599c-0.086,0.199-0.144,0.352-0.275,0.321
	c-0.132-0.031-0.336-0.247-0.566-0.389c-0.23-0.142-0.485-0.212-0.756-0.151c-0.272,0.06-0.56,0.25-1.02,0.502
	c-0.459,0.254-1.09,0.571-1.818,0.924c-0.729,0.352-1.552,0.738-2.34,1.158c-0.788,0.418-1.539,0.871-2.279,1.365
	c-0.741,0.495-1.47,1.03-2.216,1.685c-0.746,0.656-1.508,1.428-2.187,2.142c-0.679,0.713-1.273,1.366-1.888,2.097
	c-0.615,0.731-1.25,1.541-1.762,2.346c-0.511,0.804-0.902,1.603-1.355,2.529c-0.452,0.926-0.966,1.98-1.352,2.975
	c-0.387,0.993-0.646,1.928-0.918,2.932c-0.271,1.004-0.556,2.081-0.75,3.062c-0.193,0.981-0.295,1.868-0.43,2.662
	c-0.135,0.795-0.303,1.499-0.438,2.114c-0.135,0.614-0.237,1.14-0.29,1.446c-0.053,0.307-0.057,0.395-0.144,0.469
	c-0.088,0.075-0.259,0.137-1.08,0.256c-0.82,0.118-2.291,0.294-3.784,0.43c-1.494,0.137-3.011,0.236-4.99,0.409
	c-1.979,0.174-4.419,0.422-6.502,0.626c-2.083,0.205-3.807,0.364-5.27,0.475c-1.463,0.109-2.663,0.168-4.038,0.425
	s-2.925,0.712-4.198,1.116c-1.273,0.402-2.269,0.752-3.295,1.344c-1.026,0.591-2.085,1.422-2.745,2.214
	c-0.66,0.792-0.922,1.543-1.3,2.367c-0.377,0.824-0.87,1.721-1.451,2.605s-1.253,1.757-1.793,2.608
	c-0.54,0.852-0.948,1.683-1.351,2.536c-0.404,0.854-0.8,1.729-1.074,2.563s-0.424,1.625-0.716,2.442
	c-0.294,0.816-0.731,1.659-1.057,2.359c-0.325,0.701-0.537,1.258-0.676,1.727c-0.14,0.469-0.21,0.848-0.257,1.074
	c-0.048,0.227-0.073,0.299-0.369,0.644c-0.296,0.345-0.861,0.961-1.332,1.609s-0.846,1.325-1.074,2.043
	c-0.228,0.716-0.308,1.471-0.301,2.262s0.102,1.62,0.15,2.228c0.047,0.607,0.047,0.994,0.003,1.148s-0.131,0.079-0.869,0.239
	c-0.739,0.161-2.129,0.559-3.476,0.956c-1.348,0.397-2.653,0.795-4.301,1.293c-1.646,0.498-3.633,1.096-5.147,1.57
	c-1.513,0.475-2.553,0.825-3.728,1.215c-1.174,0.39-2.483,0.821-3.728,1.253c-1.244,0.432-2.421,0.865-3.693,1.385
	c-1.271,0.52-2.635,1.125-3.833,1.707s-2.23,1.14-3.29,1.687c-1.061,0.547-2.146,1.083-3.248,1.749
	c-1.101,0.666-2.218,1.461-3.21,2.184c-0.992,0.722-1.86,1.371-2.848,2.125c-0.989,0.752-2.098,1.61-3.119,2.485
	c-1.021,0.875-1.955,1.769-2.708,2.58s-1.326,1.541-1.995,2.255c-0.669,0.712-1.436,1.409-2.096,2.113
	c-0.661,0.704-1.215,1.415-1.835,2.152c-0.62,0.736-1.306,1.499-1.952,2.204c-0.646,0.704-1.25,1.349-1.878,2.151
	c-0.627,0.803-1.276,1.762-1.93,2.613c-0.652,0.852-1.309,1.596-1.94,2.388c-0.631,0.792-1.236,1.63-1.714,2.294
	c-0.478,0.665-0.828,1.155-1.29,1.818c-0.46,0.663-1.032,1.497-1.535,2.236c-0.503,0.741-0.938,1.386-1.373,2.085
	c-0.436,0.698-0.874,1.45-1.313,2.259c-0.439,0.81-0.88,1.678-2.059,4.164s-3.093,6.588-5.232,13.178
	c-2.139,6.589-4.502,15.663-6.618,22.841c-2.116,7.177-3.982,12.459-5.909,17.755c-1.926,5.295-3.91,10.606-5.777,15.844
	c-1.867,5.238-3.618,10.402-5.354,16.267c-1.737,5.865-3.458,12.431-4.859,18.164c-1.4,5.733-2.48,10.635-3.575,14.867
	c-1.093,4.23-2.203,7.791-3.049,11.613c-0.847,3.822-1.429,7.906-1.882,10.125c-0.453,2.217-0.773,2.568-1.795,3.924
	c-1.021,1.357-2.742,3.721-3.88,6.434c-1.137,2.715-1.692,5.777-2.247,9.761c-0.555,3.982-1.109,8.886-1.722,13.407
	c-0.612,4.523-1.283,8.666-1.882,13.058s-1.123,9.031-1.327,12.94c-0.205,3.91-0.088,7.091-0.351,11.744
	c-0.263,4.654-0.904,10.783-1.415,16.094c-0.511,5.309-0.89,9.803-1.181,14.194c-0.292,4.392-0.497,8.681-0.745,12.999
	s-0.54,8.666-0.729,11.249c-0.19,2.581-0.277,3.399-0.803,4.639c-0.524,1.24-1.488,2.903-1.647,4.318
	c-0.161,1.415,0.48,2.583,0.656,4.597c0.175,2.012-0.117,4.872-0.059,7.338c0.059,2.465,0.467,4.537,0.745,6.47
	c0.277,1.934,0.423,3.728,0.321,5.756s-0.453,4.29-0.562,6.653c-0.11,2.363,0.022,4.828,0.233,7.097
	c0.212,2.269,0.503,4.341,1.204,5.837c0.7,1.495,1.809,2.414,2.735,3.173s1.671,1.356,2.101,1.685
	c0.431,0.328,0.547,0.387,0.605,1.466c0.058,1.08,0.058,3.182,0.08,5.603c0.022,2.423,0.066,5.165,0.241,7.28
	c0.175,2.116,0.482,3.604,0.573,4.749c0.092,1.146-0.033,1.948,0.124,2.645c0.157,0.696,0.594,1.287,1.091,1.819
	c0.496,0.533,1.05,1.007,1.75,1.376C12.715,474.496,13.563,474.762,15.095,475.28z"/>
</svg>