<?xml version="1.0" encoding="UTF-8"?>
<!DOCTYPE svg PUBLIC "-//W3C//DTD SVG 1.1//EN" "http://www.w3.org/Graphics/SVG/1.1/DTD/svg11.dtd">
<!-- Creator: CorelDRAW 2018 (64 Bit Versão de avaliação) -->
<svg version="1.1" class="detalhes_moletom" xmlns="http://www.w3.org/2000/svg" xmlns:xlink="http://www.w3.org/1999/xlink" 
	width="460px" height="469px" fill-rule="evenodd" clip-rule="evenodd" viewBox="0 0 459886 469467" xml:space="preserve"
	shape-rendering="geometricPrecision" text-rendering="geometricPrecision" image-rendering="optimizeQuality">
	<g class="manga_raglan">
		<path d="M95956 256709c2552,-6306 6256,-17745 8881,-23063 854,-1730 1458,-2140 3316,-2810 1369,-493 3980,-1161 4567,-2517 440,-1017 -568,-3153 -1023,-4215l-1095 -2427c-38,-87 974,-516 1364,-254 -195,-964 -390,-1929 -655,-3084 -265,-1154 -602,-2498 -926,-3939 -324,-1442 -637,-2981 -1008,-4836 -371,-1856 -800,-4028 -1167,-6450 -368,-2422 -672,-5094 -879,-7696 -207,-2601 -317,-5133 -434,-7019 -117,-1887 -242,-3129 -183,-4051 58,-922 300,-1524 531,-1996 231,-473 449,-816 496,-2539 47,-1723 -78,-4825 -199,-7352 -121,-2527 -238,-4480 -274,-6894 -35,-2414 12,-5289 864,-9047 851,-3758 2508,-8399 4773,-13743 2266,-5343 5140,-11390 7656,-15961 2516,-4570 4672,-7664 7297,-11094 2625,-3429 5719,-7195 9602,-11359 3883,-4164 8554,-8726 12008,-11757 3453,-3031 5687,-4532 7570,-5922 1883,-1391 3415,-2672 4423,-3563 1007,-890 1492,-1391 3039,-2164 1546,-773 4156,-1820 6086,-2695 1929,-875 3179,-1578 4750,-2945 1570,-1368 3461,-3399 4687,-4782 575,-647 1003,-1153 1328,-1544 -378,-16 -749,-30 -1113,-45 -4085,-168 -7211,-340 -10015,-618 -2805,-277 -5289,-660 -7977,-1148 -2688,-489 -5578,-1082 -7656,-1438 -2079,-355 -3345,-473 -5071,-680 -1727,-207 -3915,-504 -5008,-652 -1094,-149 -1094,-149 -1094,-149 0,0 0,0 -609,211 -610,211 -1829,633 -3472,1154 -1613,511 -3636,1117 -5666,1725l1 4 -5852 1735c-5510,1657 -16981,4720 -22759,6933 -4304,1648 -11225,5067 -14182,7238 -4117,3025 -7330,6766 -10621,10377 -1329,1458 -2061,2176 -3339,3806 -4962,6328 -9253,13822 -12510,21270 -3118,7130 -7205,19253 -8954,27016 -1306,5793 -2478,14096 -3340,19949 -1521,10329 -1679,10784 -5120,20818 -3592,10475 -5994,17605 -8459,28178 -1566,6714 -2669,11816 -4761,18542 -1671,5370 -6665,19538 -9034,23999 -2518,4742 -5437,5585 -6247,12632 -464,4035 -134,9200 624,12976 663,3297 1546,5901 1121,9228 -194,1515 -654,3109 -1530,6549 -876,3440 -2169,8725 -3052,13572 -883,4847 -1357,9256 -1967,13551 -611,4294 -1358,8474 -1982,12330 -2272,14023 -3480,27490 -5580,41385 -560,3705 -1192,7497 -1781,11417 -865,5759 -1631,12510 -3081,17020 -526,1636 -1020,2735 -1199,3763l0 1524c123,650 412,1359 933,2231 964,1613 986,2377 578,4891 -463,2854 -1385,5660 -513,8297 730,2210 2149,4296 3677,5591 147,124 227,192 256,327 37,168 -5,441 -95,1059 -952,6563 -1882,14270 -1109,21058 151,1325 265,1519 732,1849 3655,2587 6306,1615 10553,2320l6560 542c4854,116 11480,440 16060,-887l7621 -2968c1796,-876 3211,-1884 4133,-3527 1510,-2691 523,-3589 70,-6659l-743 -9919c2666,-696 5065,-2894 6704,-5282 1654,-2410 1464,-4229 1116,-6867 -300,-2274 2201,-11442 2625,-14472 544,-3880 556,-6317 341,-10031 -214,-3705 127,-4182 302,-7645 72,-1422 28,-2793 165,-4344 136,-1551 453,-3282 758,-5088 305,-1806 599,-3687 876,-5712 276,-2026 535,-4194 872,-6058 338,-1863 754,-3422 980,-4553 227,-1131 263,-1834 467,-2879 205,-1045 578,-2431 779,-3540 202,-1110 230,-1943 363,-2758 133,-815 370,-1612 973,-4219l4492 -19281c657,-2528 1325,-4927 1856,-7006 840,-3286 1295,-6124 3009,-8398 2509,-3328 5242,-4579 5386,-9741 103,-3681 -1315,-7833 -2887,-10933l-395 -611c3759,-2062 6501,-3633 8402,-7881 1020,-2277 993,-4411 1040,-7161l177 -7115c0,0 0,0 604,-976 3011,-4875 3323,-6148 5497,-11641 872,-2205 1813,-4337 2675,-6467zm314582 180334c-186,6219 -302,14329 -1830,20356 -888,3502 -1765,3826 1636,6217 2240,1576 3628,2039 6718,2880 5458,1486 8796,2015 14459,2021 5840,7 7683,-892 13100,-1730l7806 -930c474,-163 526,-1539 566,-2374 41,-870 34,-2009 88,-3271 193,-4539 336,-6557 39,-12091 -158,-2944 -431,-6276 -528,-8043 -71,-1292 -139,-1717 89,-1995 313,-382 1185,-485 3380,-2177l2477 -2075c1011,-1096 1258,-2321 1318,-4072 99,-2905 31,-9354 -1458,-11777 -1423,-2317 -3489,-2792 -3361,-6503 177,-5083 2332,-7232 2051,-16663 -186,-6213 -569,-7929 -2902,-13547 -1421,-3425 -2140,-6263 -2376,-10338 -126,-2168 -40,-4380 -198,-7102 -158,-2721 -560,-5953 -887,-8883 -327,-2930 -578,-5558 -890,-8003 -313,-2445 -686,-4707 -952,-6438 -266,-1730 -423,-2930 -686,-4538 -262,-1609 -628,-3627 -984,-6011l-2086 -15705c-337,-2477 -660,-4761 -919,-6901 -854,-7071 -805,-8972 -2671,-15985 -1010,-3795 -1151,-4020 -1483,-7863 -118,-1372 -255,-2923 -295,-4851 -85,-4152 210,-7237 -567,-11353 -634,-3360 -1646,-6331 -3583,-9135 -1756,-2541 -3934,-4453 -4718,-6843 -427,-1303 -751,-3171 -1138,-5357 -388,-2187 -841,-4693 -1375,-7228 -535,-2535 -1153,-5098 -1638,-7292 -484,-2194 -836,-4018 -1260,-5925 -424,-1906 -919,-3896 -1393,-5989 -474,-2093 -927,-4290 -1296,-5752 -370,-1461 -657,-2186 -970,-3303l-2298 -9529 -2682 -8991 -3558 -9389c-707,-1630 -1619,-3555 -2341,-5271l-3709 -9985c-1559,-4467 -3633,-12115 -5113,-18154 -2421,-9871 -2803,-13510 -6514,-22273 -4155,-9814 -9041,-19709 -15827,-28250 -3812,-4798 -10089,-11368 -14671,-15008 -3023,-2402 -8187,-5571 -11375,-7038 -6012,-2766 -17184,-6170 -23676,-7831 -2304,-589 -5141,-1127 -6082,-1626 -279,-81 -558,-162 -1510,-397 -952,-236 -2577,-626 -4386,-1177 -1809,-551 -3801,-1262 -4903,-1617 -1101,-356 -1312,-356 -1902,-278 -590,78 -1558,235 -3027,563 -1469,328 -3438,828 -5680,1429 -2243,602 -4758,1305 -8579,2032 -3820,726 -8945,1476 -13273,1922 -1801,185 -3465,318 -5092,427 71,70 145,144 223,221 879,867 2231,2171 3727,3527 1496,1356 3136,2762 4925,3703 1790,942 3727,1419 5598,2317 1872,898 3676,2219 6383,4215 2707,1996 6317,4668 10121,7863 3805,3195 7805,6914 11196,10563 3391,3648 6172,7226 8750,10734 2578,3508 4954,6945 7024,10398 2070,3454 3836,6922 5532,10610 1695,3687 3320,7594 4574,11195 1254,3602 2137,6899 2844,9630 707,2731 1238,4894 1629,6953 390,2059 640,4012 465,6290 -176,2277 -778,4878 -1145,7386 -367,2508 -500,4922 -418,6688 82,1766 380,2883 501,4035 121,1152 67,2340 246,3730 180,1390 594,2984 829,4082 234,1097 289,1699 234,2824 -55,1125 -219,2774 -485,4309 -265,1535 -632,2957 -980,4367 -348,1410 -676,2809 -1058,4391 -383,1582 -821,3347 -1175,4819 -292,1217 -529,2233 -755,3214 145,274 394,1346 1542,2372 2426,2169 5056,1833 7124,4901 1735,2575 3117,7385 4200,10578l4984 14215 2876 8427c1708,5571 2823,8998 4036,14836 979,4713 907,7213 5020,10055l3899 2350c158,76 258,119 177,577 -82,459 -346,1333 -481,1925 -136,591 -143,900 -279,1516 -511,2302 -1529,4864 -785,7324 296,979 885,2156 1430,2936 1124,1604 4249,3301 4761,4150l1383 7447c369,2294 743,4693 1220,6869 478,2176 1060,4129 1588,6222 527,2093 1001,4327 1569,6528 567,2201 1228,4370 1630,6165 402,1795 545,3217 829,4843 284,1627 707,3458 1113,5350l2165 11504c295,1900 539,3796 844,5616 305,1820 672,3565 955,5120 284,1555 485,2919 733,4330 1196,6811 2672,12287 4664,20096 1665,6532 3198,12359 5088,17835 694,2012 858,1563 115,1840 -2033,757 -3260,1023 -3841,2953 -626,2081 690,4333 1817,7145 1040,2596 2700,7688 3978,9388 894,1189 1360,1361 1590,1605 225,239 227,546 186,1928z"/>
	</g>	
	<g class="punho">	
		<path d="M410538 437043c-186,6219 -302,14329 -1830,20356 -888,3502 -1765,3826 1636,6217 2240,1576 3628,2039 6718,2880 5458,1486 8796,2015 14459,2021 5840,7 7683,-892 13100,-1730l7806 -930c474,-163 526,-1539 566,-2374 41,-870 34,-2009 88,-3271 193,-4539 336,-6557 39,-12091 -158,-2944 -431,-6276 -528,-8043 -71,-1292 -139,-1717 89,-1995 -27,-288 -56,-598 -90,-951 -67,-683 -153,-1526 -145,-2308 8,-781 109,-1499 66,-2109 -43,-609 -230,-1109 -918,-1668 -687,-558 -1875,-1176 -3289,-1735 -1414,-558 -3055,-1058 -5262,-1648 -2207,-590 -4981,-1269 -7789,-1734 -2809,-465 -5653,-715 -8434,-747 -2781,-31 -5500,157 -7485,317 -1984,160 -3234,293 -4484,695 -1250,403 -2500,1075 -3235,1606 -734,531 -953,922 -1039,1195 -86,274 -39,430 -4,676 36,246 59,582 14,1590 -40,905 -134,2351 -235,3853 225,239 227,546 186,1928zm-361016 10244l-743 -9919c-51,-474 -102,-948 -57,-1587 45,-640 186,-1444 311,-2327 125,-883 234,-1844 148,-2813 -86,-969 -367,-1945 -793,-2758 -426,-813 -996,-1461 -1777,-2160 -781,-699 -1774,-1449 -3086,-2098 -1313,-648 -2946,-1195 -4641,-1598 -1695,-402 -3453,-660 -4996,-820 -1543,-160 -2871,-222 -4969,-156 -2098,66 -4965,262 -7524,644 -2558,383 -4809,954 -6895,1610 -2086,656 -4008,1399 -5402,2223 -1395,824 -2262,1730 -2860,2488 -597,758 -925,1367 -1031,2098 -105,730 12,1582 14,2333 2,751 -111,1402 -224,2053 37,168 -5,441 -95,1059 -952,6563 -1882,14270 -1109,21058 151,1325 265,1519 732,1849 3655,2587 6306,1615 10553,2320l6560 542c4854,116 11480,440 16060,-887l7621 -2968c1796,-876 3211,-1884 4133,-3527 1510,-2691 523,-3589 70,-6659z"/>
	</g>	
	<g class="barra">	
		<path d="M127660 428427c-1350,-147 -2502,-253 -3546,-399 -201,-28 -398,-58 -591,-89 -989,-161 -1890,-375 -2776,-598l-1107 7995 -2132 10240c-298,1454 -657,3242 -1164,5414l-2122 8948c-151,1913 2520,2390 4668,2783 18138,3320 38146,4442 56695,4886 3447,83 6765,126 10528,273 3763,147 7971,399 12086,582 3419,152 6775,257 10657,389l37356 0c3155,-119 6233,-190 10362,-310l44695 -1698c9290,-434 15167,-917 23967,-2219 3314,-491 9383,-1353 11969,-2295 2402,-874 1956,-1820 1313,-4499 -489,-2032 -1408,-5673 -2183,-9820 -1126,-6019 -2206,-14620 -2453,-19712 -8,-162 -14,-311 -18,-450 -883,94 -1728,187 -2491,277 -98,12 -196,24 -293,35 -1257,153 -2398,317 -4995,723 -2797,438 -7282,1157 -11899,1688 -4617,531 -9368,875 -15047,1265 -5680,391 -12289,829 -18243,1243 -5953,414 -11250,804 -16547,1171 -5297,368 -10594,711 -15727,961 -5132,250 -10101,407 -14992,454 -4891,47 -9703,-16 -14789,-165 -5086,-148 -10446,-382 -15672,-703 -5227,-320 -10321,-726 -15438,-1148 -5117,-422 -10258,-859 -13922,-1117 -3664,-258 -5852,-336 -8906,-453 -3055,-117 -6977,-274 -10852,-500 -3875,-227 -7703,-524 -11196,-954 -3492,-429 -6648,-992 -9171,-1390 -2524,-398 -4415,-632 -6024,-808z"/>
	</g>	
	<g class="bolso">	
		<path d="M125266 420842c-568,3100 -860,5143 -1152,7186 1044,146 2196,252 3546,399 1609,176 3500,410 6024,808 2523,398 5679,961 9171,1390 3493,430 7321,727 11196,954 3875,226 7797,383 10852,500 3054,117 5242,195 8906,453 3664,258 8805,695 13922,1117 5117,422 10211,828 15438,1148 5226,321 10586,555 15672,703 5086,149 9898,212 14789,165 4891,-47 9860,-204 14992,-454 5133,-250 10430,-593 15727,-961 5297,-367 10594,-757 16547,-1171 5954,-414 12563,-852 18243,-1243 5679,-390 10430,-734 15047,-1265 4617,-531 9102,-1250 11899,-1688 2597,-406 3738,-570 4995,-723 -19,-295 -59,-609 -120,-948 -203,-1125 -640,-2516 -1219,-5016 -578,-2500 -1296,-6110 -1859,-9961 -562,-3852 -969,-7946 -1250,-11422 -281,-3477 -437,-6336 -722,-8134 -285,-1796 -699,-2531 -1093,-3035 -395,-504 -770,-777 -1160,-1238 -391,-461 -797,-1110 -1477,-1906 -680,-797 -1633,-1743 -2797,-3067 -1164,-1324 -2539,-3027 -4078,-5332 -1539,-2305 -3242,-5211 -4891,-8266 -1648,-3054 -3242,-6257 -4633,-9328 -1390,-3070 -2578,-6008 -3578,-9203 -1000,-3195 -1812,-6649 -2531,-9961 -719,-3313 -1344,-6485 -1883,-9188 -539,-2703 -992,-4937 -1648,-6773 -656,-1836 -1516,-3274 -2243,-4446 -726,-1172 -1320,-2078 -1598,-2598 -277,-519 -238,-652 -218,-773 19,-121 19,-231 19,-426 0,-195 0,-477 -55,-766 -54,-289 -163,-586 -507,-875 -344,-289 -922,-570 -1563,-758 -640,-187 -1344,-281 -4344,-289 -2999,-7 -8297,71 -14953,180 -6656,110 -14672,250 -21773,313 -7102,62 -13290,47 -20298,31 -7007,-16 -14835,-31 -22625,-149 -7789,-117 -15539,-335 -22484,-562 -6945,-227 -13086,-461 -16305,-547 -3219,-86 -3516,-23 -3672,555 -156,578 -172,1672 -180,2218 -7,547 -7,547 -390,1063 -383,516 -1148,1547 -1820,2961 -672,1414 -1250,3211 -1797,5789 -547,2578 -1063,5938 -1813,9532 -750,3593 -1734,7422 -3062,11570 -1328,4149 -3000,8617 -4672,12399 -1672,3781 -3344,6875 -5149,9851 -1804,2977 -3742,5836 -5672,8313 -1929,2477 -3851,4570 -5156,6164 -1305,1594 -1992,2688 -2524,3266 -531,578 -906,640 -1406,945 -500,305 -1125,852 -1445,1391 -320,539 -336,1070 -438,4351 -101,3282 -289,9313 -804,14407 -516,5094 -1360,9251 -1928,12350z"/>
	</g>	
	<g class="amarrilho">	
		<path d="M202657 94787c-680,4891 -1414,10000 -1937,15141 -524,5141 -837,10313 -1071,15258 -234,4945 -391,9664 -570,14383 -180,4719 -383,9438 -438,14977 -54,5539 39,11898 133,17469 94,5570 187,10352 242,15203 55,4852 70,9774 141,12321 70,2547 195,2719 867,2781 672,63 1891,16 2625,-55 735,-70 985,-164 1125,-1421 141,-1258 172,-3680 102,-8102 -71,-4422 -242,-10844 -367,-17687 -126,-6844 -204,-14110 -188,-20094 15,-5985 125,-10688 281,-15305 157,-4617 360,-9149 578,-13539 219,-4391 454,-8641 837,-13547 382,-4906 913,-10469 1655,-15899 742,-5429 1696,-10726 2485,-14476 789,-3750 1414,-5954 1945,-7453 295,-833 561,-1449 814,-1969 -905,-204 -1819,-404 -2733,-597 -437,-92 -874,-183 -1311,-272 -1091,2891 -2156,5846 -2981,9360 -929,3961 -1554,8633 -2234,13523zm42288 -21325c779,1756 1529,3537 2160,5421 833,2484 1458,5149 2344,9282 887,4132 2035,9734 2890,15504 856,5769 1418,11707 1809,17582 391,5875 609,11688 797,17250 187,5562 344,10875 359,18359 16,7485 -109,17141 -195,24251 -86,7109 -133,11671 -200,14757 -66,3086 -152,4696 -78,5536 74,840 309,910 1027,957 719,47 1922,70 2606,43 684,-28 848,-106 980,-691 133,-587 235,-1680 325,-6227 89,-4547 167,-12547 237,-19536 71,-6988 133,-12964 86,-19031 -47,-6066 -203,-12222 -375,-17355 -172,-5133 -359,-9243 -594,-13383 -234,-4141 -515,-8313 -961,-12242 -445,-3930 -1055,-7618 -1711,-11563 -656,-3945 -1359,-8149 -2258,-12414 -898,-4266 -1992,-8594 -2820,-11360 -828,-2766 -1391,-3969 -1797,-4922 -163,-382 -301,-725 -424,-1043 -1444,261 -2857,538 -4207,825z"/>
	</g>	
	<g class="fundo_gola">	
		<path d="M203744 59493c1227,1144 2618,2066 3696,3117 1078,1050 1844,2230 3176,3535 1332,1305 3230,2734 5473,4254 2242,1520 4828,3129 6821,4314 1992,1184 3392,1943 4791,2703 96,38 187,73 272,104 898,328 1226,250 1695,148 96,-21 199,-42 316,-69 1440,-894 2925,-1815 4832,-2985 2141,-1312 4813,-2937 7043,-4472 2231,-1536 4020,-2981 5121,-4087 1102,-1105 1516,-1871 2258,-2718 743,-848 1813,-1778 2618,-2442 804,-664 1343,-1062 2082,-1922 738,-859 1676,-2180 2664,-3488 988,-1309 2027,-2606 2828,-3707 801,-1102 1363,-2008 1644,-2461 281,-453 281,-453 -1383,-430 -1664,24 -4993,71 -9259,51 -4265,-19 -9469,-106 -13656,-133 -4188,-27 -7360,4 -11641,-3 -4282,-8 -9672,-55 -13591,-122 -3918,-66 -6363,-152 -7988,-188 -1625,-36 -2430,-22 -3235,-7 -1690,-7 -3273,-13 -4128,-16 -1004,-4 -1004,-4 -1004,-4 0,0 0,0 868,1191 867,1192 2601,3575 4000,5450 1398,1875 2461,3242 3687,4387z"/>
	</g>	
	<g class="capuz">	
		<path d="M170223 68328c2804,278 5930,450 10015,618 364,15 735,29 1113,45 3871,154 8463,331 12996,790 4537,460 9016,1202 13525,2123 437,89 874,180 1311,272 914,193 1828,393 2733,597 4004,902 7817,1882 10455,2692 2928,898 4409,1585 5330,1951 -1399,-760 -2799,-1519 -4791,-2703 -1993,-1185 -4579,-2794 -6821,-4314 -2243,-1520 -4141,-2949 -5473,-4254 -1332,-1305 -2098,-2485 -3176,-3535 -1078,-1051 -2469,-1973 -3696,-3117 -1226,-1145 -2289,-2512 -3687,-4387 -1399,-1875 -3133,-4258 -4000,-5450 -868,-1191 -868,-1191 -868,-1191 0,0 0,0 1004,4 855,3 2438,9 4128,16 805,-15 1610,-29 3235,7 1625,36 4070,122 7988,188 3919,67 9309,114 13591,122 4281,7 7453,-24 11641,3 4187,27 9391,114 13656,133 4266,20 7595,-27 9259,-51 1664,-23 1664,-23 1383,430 -281,453 -843,1359 -1644,2461 -801,1101 -1840,2398 -2828,3707 -988,1308 -1926,2629 -2664,3488 -739,860 -1278,1258 -2082,1922 -805,664 -1875,1594 -2618,2442 -742,847 -1156,1613 -2258,2718 -1101,1106 -2890,2551 -5121,4087 -2230,1535 -4902,3160 -7043,4472 -1907,1170 -3392,2091 -4832,2985 451,-102 1119,-272 2496,-712 1735,-555 4594,-1539 8539,-2523 1218,-304 2538,-608 3926,-902 1350,-287 2763,-564 4207,-825 1886,-340 3825,-651 5742,-914 4899,-672 9665,-1031 13813,-1281 2422,-146 4633,-255 6916,-409 1627,-109 3291,-242 5092,-427 4328,-446 9453,-1196 13273,-1922 3821,-727 6336,-1430 8579,-2032 2242,-601 4211,-1101 5680,-1429 1469,-328 2437,-485 3027,-563 590,-78 801,-78 1902,278 1102,355 3094,1066 4903,1617 1809,551 3434,941 4386,1177 952,235 1231,316 1510,397 526,-2453 1030,-4331 -471,-6779 -1079,-1762 -1040,-638 -1129,-1659 -225,-2587 -1055,-3605 -1876,-5813 -834,-2241 497,-2960 -4215,-6761 -984,-794 -1774,-1325 -2639,-2115 -2943,-2686 -3222,-4052 -7709,-5501 -5124,-1653 -12020,-2041 -17641,-2452l-5141 -363c59,0 -1833,-1580 -3162,-4806 -972,-2359 -2431,-7848 -3343,-10856 -1397,-4611 -2273,-5824 -5700,-9130 -4253,-4105 -6437,-5169 -11607,-7237 -3105,-1242 -2022,-658 -3188,-363 -347,88 -258,-557 -810,-746 -303,-103 -771,-22 -1405,-2l-7571 -683c-5349,-543 -9976,-603 -15163,-1443 -3332,-539 -4116,-523 -8240,-154 -2288,204 -5225,535 -7767,783l-10750 858c-2034,146 -3254,20 -4222,1134 -400,460 -156,-41 -835,-185 -787,-166 -5020,1528 -6460,2164 -5478,2419 -9134,5215 -12184,10434 -3714,6353 -2851,12404 -4510,16240 -570,1316 -2096,2831 -2991,3585 -330,278 -488,332 -1506,492 -6897,1083 -10888,1270 -18436,3316 -3234,876 -7185,2049 -9425,3978 -1926,1659 -5103,5722 -5806,8143 -468,1612 317,611 -564,2287 -841,1603 -2618,4918 -3055,6697 -151,614 -122,937 -280,1181 -202,312 -1303,906 -1219,3029l715 2949c2030,-608 4053,-1214 5666,-1725 1643,-521 2862,-943 3472,-1154 609,-211 609,-211 609,-211 0,0 0,0 1094,149 1093,148 3281,445 5008,652 1726,207 2992,325 5071,680 2078,356 4968,949 7656,1438 2688,488 5172,871 7977,1148z"/>
	</g>	
</svg>