<?xml version="1.0" encoding="utf-8"?>
<!-- Generator: Adobe Illustrator 16.0.3, SVG Export Plug-In . SVG Version: 6.00 Build 0)  -->
<!DOCTYPE svg PUBLIC "-//W3C//DTD SVG 1.1//EN" "http://www.w3.org/Graphics/SVG/1.1/DTD/svg11.dtd">
<svg version="1.1" id="molde_moletom" xmlns="http://www.w3.org/2000/svg" xmlns:xlink="http://www.w3.org/1999/xlink" x="0px" y="0px" 
	width="460px" height="469px" viewBox="0 0 460 469" enable-background="new 0 0 460 469" xml:space="preserve" 
	image-rendering="optimizeQuality" text-rendering="geometricPrecision" shape-rendering="geometricPrecision">
	<path d="M127.978,69.021c-2.183,0.656-6.271,1.832-10.482,3.045c-4.212,1.213-8.544,2.46-12.254,3.881
	c-3.708,1.421-6.793,3.013-9.003,4.168s-3.543,1.872-5.165,3.063c-1.621,1.191-3.529,2.855-5.445,4.785
	c-1.915,1.93-3.838,4.125-5.165,5.582c-1.328,1.457-2.059,2.174-3.335,3.802c-1.278,1.628-3.099,4.167-4.664,6.571
	c-1.563,2.404-2.869,4.67-4.168,7.124s-2.59,5.093-3.666,7.553c-1.076,2.462-1.938,4.743-2.948,7.512
	c-1.012,2.769-2.174,6.026-3.236,9.384c-1.061,3.357-2.023,6.815-2.761,10.094c-0.739,3.278-1.256,6.378-1.794,9.785
	c-0.537,3.408-1.098,7.124-1.542,10.144c-0.444,3.02-0.774,5.345-1.155,7.375c-0.38,2.03-0.81,3.767-1.427,5.803
	c-0.617,2.038-1.421,4.377-2.533,7.62s-2.532,7.389-3.651,10.839c-1.119,3.45-1.937,6.206-2.683,8.925
	c-0.747,2.718-1.421,5.402-2.116,8.386c-0.696,2.985-1.414,6.271-2.196,9.406c-0.781,3.135-1.628,6.119-2.56,9.118
	c-0.933,3-1.951,6.012-3.035,9.017c-1.083,3.006-2.231,6.005-3.243,8.588c-1.011,2.582-1.886,4.749-2.748,6.37
	c-0.861,1.622-1.707,2.697-2.525,3.753c-0.817,1.055-1.606,2.088-2.267,3.479c-0.661,1.393-1.191,3.143-1.449,5.389
	c-0.259,2.244-0.245,4.984-0.108,7.244c0.136,2.261,0.395,4.04,0.731,5.719c0.337,1.678,0.753,3.256,0.997,4.764
	c0.245,1.506,0.315,2.94,0.123,4.455c-0.194,1.514-0.653,3.105-1.528,6.543c-0.875,3.436-2.167,8.716-3.049,13.558
	c-0.882,4.843-1.356,9.247-1.965,13.538c-0.61,4.289-1.356,8.465-1.98,12.317c-0.624,3.853-1.127,7.382-1.657,11.407
	c-0.531,4.023-1.091,8.543-1.493,11.793c-0.401,3.25-0.645,5.23-1.012,8.027c-0.366,2.799-0.853,6.414-1.413,10.116
	c-0.56,3.701-1.191,7.489-1.779,11.405c-0.588,3.918-1.134,7.965-1.644,10.884c-0.509,2.92-0.982,4.713-1.435,6.12
	c-0.451,1.405-0.882,2.424-1.098,3.299c-0.215,0.876-0.215,1.607-0.036,2.303c0.18,0.696,0.539,1.356,0.868,1.908
	c0.331,0.553,0.631,0.997,0.75,1.733c0.118,0.735,0.054,1.761-0.173,3.153c-0.226,1.392-0.614,3.148-0.79,4.559
	c-0.175,1.409-0.14,2.471,0.277,3.729c0.417,1.26,1.213,2.716,1.944,3.728c0.732,1.011,1.398,1.578,1.729,1.858
	c0.33,0.279,0.323,0.272,0.161,1.385c-0.161,1.111-0.476,3.343-0.774,5.997s-0.578,5.732-0.625,8.497
	c-0.047,2.766,0.14,5.219,0.291,6.543c0.15,1.323,0.265,1.518,0.731,1.847c0.467,0.331,1.284,0.798,1.991,1.123
	c0.706,0.327,1.302,0.514,2.364,0.646c1.062,0.133,2.59,0.212,3.698,0.288c1.109,0.074,1.797,0.146,2.489,0.262
	c0.692,0.114,1.388,0.272,2.443,0.369c1.055,0.097,2.467,0.133,4.111,0.172c1.642,0.039,3.515,0.083,5.434,0.097
	c1.919,0.015,3.885,0,5.668-0.136c1.782-0.137,3.381-0.396,4.942-0.847c1.561-0.452,3.082-1.099,4.352-1.606
	c1.27-0.51,2.288-0.884,3.262-1.359c0.974-0.475,1.903-1.052,2.598-1.646c0.694-0.593,1.153-1.202,1.531-1.877
	c0.379-0.674,0.676-1.413,0.773-2.095c0.097-0.682-0.007-1.306-0.156-1.928c-0.149-0.623-0.343-1.243-0.548-2.63
	c-0.205-1.387-0.419-3.538-0.545-5.317c-0.125-1.779-0.161-3.185-0.179-3.888c-0.018-0.704-0.018-0.704-0.018-0.704s0,0,0.248-0.063
	c0.247-0.065,0.742-0.194,1.459-0.574s1.657-1.013,2.568-1.848c0.911-0.836,1.793-1.876,2.421-2.791
	c0.627-0.914,1.001-1.703,1.184-2.558c0.183-0.853,0.175-1.771,0.127-2.525c-0.049-0.753-0.138-1.341-0.196-1.777
	c-0.057-0.436-0.082-0.719,0.096-1.883c0.177-1.164,0.558-3.209,0.905-4.919c0.349-1.712,0.664-3.089,0.929-4.197
	c0.266-1.108,0.481-1.948,0.692-3.458c0.212-1.51,0.42-3.69,0.471-5.51c0.05-1.818-0.058-3.275-0.13-4.512
	c-0.071-1.237-0.107-2.257-0.032-3.502c0.075-1.244,0.262-2.715,0.334-4.136c0.072-1.42,0.028-2.79,0.165-4.34
	c0.136-1.549,0.453-3.278,0.757-5.082c0.305-1.805,0.599-3.684,0.875-5.707c0.275-2.023,0.534-4.189,0.871-6.052
	c0.337-1.861,0.753-3.419,0.979-4.548c0.227-1.131,0.263-1.832,0.466-2.877c0.205-1.044,0.578-2.428,0.778-3.536
	c0.202-1.108,0.229-1.94,0.363-2.755c0.133-0.814,0.37-1.611,0.972-4.215c0.603-2.605,1.572-7.017,2.378-10.55
	c0.807-3.532,1.454-6.188,2.11-8.712c0.656-2.525,1.324-4.923,1.854-7c0.532-2.076,0.926-3.834,1.374-5.187
	c0.449-1.352,0.951-2.298,1.632-3.202c0.682-0.904,1.542-1.765,2.404-2.748c0.86-0.982,1.721-2.088,2.242-3.268
	s0.699-2.436,0.735-3.717c0.036-1.28-0.072-2.586-0.376-3.988s-0.808-2.901-1.292-4.154c-0.483-1.25-0.95-2.256-1.216-2.779
	s-0.33-0.566-0.361-0.588c-0.033-0.021-0.033-0.021-0.033-0.021l0,0c0,0,0,0,0.66-0.362c0.661-0.362,1.98-1.087,3.092-1.865
	s2.016-1.61,2.787-2.579s1.41-2.073,1.854-3.067c0.445-0.993,0.696-1.875,0.837-3.024c0.142-1.146,0.175-2.561,0.202-4.129
	c0.027-1.57,0.048-3.295,0.077-4.506c0.029-1.211,0.064-1.906,0.083-2.254c0.017-0.349,0.017-0.349,0.017-0.349s0,0,0.604-0.976
	c0.603-0.976,1.807-2.926,2.812-5.039c1.004-2.113,1.808-4.387,2.68-6.59c0.871-2.203,1.811-4.332,2.672-6.461
	c0.86-2.127,1.642-4.249,2.42-6.38s1.553-4.269,2.329-6.374c0.774-2.105,1.549-4.179,2.265-5.979
	c0.715-1.799,1.373-3.323,1.858-4.307c0.486-0.985,0.802-1.43,1.29-1.806c0.488-0.376,1.148-0.686,2.023-1.001
	c0.875-0.316,1.966-0.639,2.826-1.047c0.861-0.41,1.493-0.904,1.736-1.468c0.244-0.563,0.101-1.195-0.133-1.912
	c-0.233-0.717-0.556-1.521-0.889-2.299c-0.333-0.778-0.678-1.531-0.864-1.935c-0.187-0.403-0.216-0.458-0.229-0.489
	c-0.015-0.033-0.015-0.043,0.147-0.111c0.162-0.069,0.484-0.194,0.724-0.229c0.241-0.034,0.398,0.024,0.491,0.086
	c0.093,0.063,0.122,0.132,0.266,0.606c0.144,0.476,0.401,1.358,1.005,3.478c0.603,2.12,1.549,5.478,2.433,8.842
	c0.882,3.365,1.7,6.736,2.625,10.18c0.925,3.443,1.959,6.959,2.762,9.613s1.376,4.447,1.865,6.5
	c0.487,2.052,0.889,4.361,1.198,6.048c0.309,1.685,0.523,2.747,0.509,4.096s-0.259,2.984-0.66,5.581
	c-0.402,2.598-0.961,6.155-1.471,9.391c-0.509,3.236-0.968,6.148-1.291,7.871c-0.324,1.721-0.51,2.252-0.704,3.069
	c-0.194,0.818-0.395,1.923-0.417,3.479c-0.021,1.557,0.137,3.566,0.41,5.294c0.273,1.729,0.659,3.179,1.263,4.686
	c0.603,1.507,1.419,3.069,2.367,4.477c0.947,1.405,2.023,2.654,3.143,3.91c1.119,1.255,2.28,2.517,3.372,3.468
	c1.09,0.951,2.109,1.589,2.618,1.908c0.51,0.32,0.51,0.32,0.51,0.32l0,0c0,0,0,0-0.097,0.745c-0.097,0.746-0.291,2.239-0.431,3.448
	c-0.14,1.208-0.226,2.133-0.269,2.596s-0.043,0.463-0.043,0.463s0,0-0.582,1.005c-0.582,1.004-1.743,3.013-3.274,5.552
	c-1.532,2.54-3.433,5.609-4.682,7.605c-1.248,1.994-1.843,2.912-2.192,3.425c-0.348,0.513-0.448,0.62-0.721,0.896
	c-0.271,0.276-0.717,0.722-1.083,1.227c-0.365,0.507-0.652,1.073-0.932,1.7c-0.279,0.629-0.552,1.316-0.592,2.234
	c-0.039,0.918,0.155,2.066,0.34,2.951c0.184,0.884,0.36,1.505,0.464,2.266c0.104,0.76,0.136,1.66,0.296,3.682
	c0.16,2.021,0.446,5.163,0.69,9.295c0.244,4.133,0.444,9.255,0.696,13.314c0.25,4.062,0.551,7.061,0.903,9.808
	s0.753,5.244,0.918,7.267c0.166,2.023,0.094,3.573-0.107,5.732c-0.201,2.16-0.531,4.928-0.875,7.439
	c-0.345,2.511-0.703,4.764-0.99,6.858c-0.288,2.095-0.502,4.032-0.732,5.854s-0.474,3.529-0.843,5.521
	c-0.369,1.99-0.864,4.265-1.229,5.961c-0.366,1.696-0.603,2.816-0.9,4.269s-0.656,3.238-1.163,5.408
	c-0.506,2.171-1.158,4.725-1.553,6.303c-0.395,1.579-0.531,2.182-0.567,2.637c-0.036,0.455,0.029,0.765,0.266,1.069
	s0.646,0.606,1.177,0.864c0.53,0.258,1.184,0.473,3.221,0.847c2.037,0.373,5.459,0.904,8.196,1.315
	c2.737,0.413,4.789,0.708,7.953,1.063c3.164,0.355,7.439,0.771,10.969,1.064c3.53,0.295,6.313,0.467,9.344,0.632
	c3.031,0.165,6.31,0.323,9.735,0.463c3.426,0.141,6.998,0.262,10.442,0.344c3.443,0.083,6.758,0.126,10.517,0.273
	c3.759,0.146,7.963,0.398,12.074,0.581c4.11,0.183,8.128,0.298,13.081,0.474c4.954,0.176,10.844,0.412,15.044,0.494
	c4.201,0.083,6.711,0.011,9.689-0.118s6.421-0.315,9.724-0.444c3.304-0.13,6.468-0.201,10.779-0.326
	c4.312-0.126,9.771-0.305,14.661-0.474c4.889-0.169,9.206-0.327,14.443-0.542c5.237-0.216,11.393-0.488,15.546-0.681
	c4.154-0.194,6.306-0.309,8.867-0.507c2.562-0.196,5.531-0.477,8.042-0.765c2.511-0.286,4.563-0.58,7.034-0.945
	c2.472-0.367,5.362-0.805,7.515-1.206s3.565-0.768,4.442-1.087s1.218-0.592,1.447-0.854c0.23-0.263,0.348-0.513,0.379-0.85
	c0.031-0.338-0.027-0.761-0.515-2.791c-0.488-2.03-1.406-5.668-2.181-9.811c-0.775-4.143-1.406-8.792-1.809-12.329
	c-0.401-3.536-0.574-5.961-0.642-7.363c-0.068-1.402-0.032-1.783-0.079-2.117c-0.046-0.333-0.176-0.62-0.265-0.81
	c-0.09-0.19-0.14-0.284-0.216-1.611c-0.075-1.327-0.176-3.889-0.463-6.417c-0.286-2.528-0.76-5.025-1.15-7.669
	c-0.392-2.644-0.7-5.435-0.711-7.705s0.276-4.021,1-6.697c0.726-2.676,1.888-6.276,2.647-9.684c0.761-3.408,1.119-6.622,1.22-10.08
	s-0.057-7.159-0.373-10.316c-0.315-3.156-0.788-5.768-1.072-8.182c-0.283-2.414-0.377-4.631-0.441-5.911s-0.1-1.626,0.04-2.472
	c0.14-0.848,0.455-2.195,0.56-3.781c0.104-1.586-0.004-3.407-0.291-4.816c-0.287-1.41-0.753-2.407-1.37-3.397
	c-0.617-0.989-1.385-1.973-2.59-2.956c-1.205-0.982-2.849-1.965-3.989-2.557c-1.14-0.592-1.779-0.793-2.475-1.299
	c-0.696-0.506-1.449-1.316-2.002-1.912s-0.903-0.976-1.079-1.166c-0.176-0.189-0.176-0.189-0.176-0.189s0,0,0.064-1
	c0.064-1.002,0.193-3.004,0.287-3.979c0.094-0.977,0.15-0.926,0.649-1.263c0.499-0.338,1.438-1.062,2.464-1.848
	s2.138-1.632,3.142-2.651c1.005-1.018,1.902-2.209,2.73-3.437c0.828-1.227,1.589-2.488,2.088-4.188
	c0.499-1.701,0.735-3.838,0.847-5.481c0.11-1.643,0.097-2.79-0.09-3.841c-0.187-1.052-0.546-2.006-0.857-3.348
	s-0.578-3.069-0.979-5.315c-0.401-2.245-0.939-5.008-1.291-6.769c-0.353-1.762-0.517-2.521-0.399-3.648
	c0.119-1.127,0.521-2.618,0.751-4.219c0.229-1.6,0.286-3.307,0.477-5.176c0.19-1.867,0.513-3.898,0.976-6.104
	s1.066-4.587,1.829-7.407c0.765-2.82,1.689-6.076,2.665-9.43c0.977-3.354,2.002-6.806,2.866-9.774
	c0.864-2.971,1.567-5.46,2.186-7.631c0.616-2.169,1.146-4.021,1.588-5.652c0.441-1.632,0.793-3.046,1.059-4.045
	s0.444-1.583,0.547-1.875c0.102-0.293,0.127-0.293,0.192-0.15c0.064,0.144,0.168,0.431,0.385,0.847
	c0.217,0.416,0.547,0.961,1.157,1.506c0.609,0.545,1.499,1.09,2.367,1.514s1.715,0.725,2.517,1.215
	c0.802,0.489,1.559,1.167,2.233,2.168c0.674,1.001,1.266,2.325,1.688,3.339c0.421,1.015,0.672,1.722,1.06,2.878
	s0.911,2.764,1.448,4.349c0.539,1.586,1.091,3.149,1.657,4.785c0.567,1.636,1.148,3.344,1.697,4.91
	c0.549,1.568,1.065,2.996,1.625,4.506s1.163,3.102,1.621,4.44c0.46,1.338,0.775,2.421,1.252,3.979
	c0.478,1.556,1.116,3.586,1.589,5.153c0.474,1.568,0.782,2.673,1.185,4.262c0.401,1.589,0.896,3.662,1.259,5.406
	c0.362,1.743,0.591,3.156,0.846,4.203s0.534,1.729,0.874,2.355c0.339,0.626,0.737,1.196,1.248,1.754
	c0.512,0.558,1.136,1.104,2.047,1.732s2.109,1.344,2.815,1.754c0.707,0.41,0.922,0.519,1.08,0.594
	c0.157,0.076,0.258,0.119,0.177,0.576c-0.082,0.459-0.346,1.332-0.48,1.924c-0.137,0.59-0.144,0.898-0.279,1.514
	c-0.137,0.615-0.402,1.537-0.605,2.385c-0.202,0.85-0.343,1.623-0.41,2.399c-0.068,0.777-0.064,1.556,0.231,2.532
	c0.296,0.979,0.884,2.154,1.429,2.934c0.546,0.778,1.048,1.158,1.743,1.686c0.696,0.527,1.586,1.201,2.131,1.628
	c0.546,0.428,0.746,0.606,0.882,0.833c0.138,0.225,0.209,0.498,0.428,1.729s0.585,3.418,0.954,5.711
	c0.369,2.291,0.742,4.688,1.219,6.861c0.478,2.174,1.06,4.125,1.587,6.217c0.526,2.09,1,4.322,1.567,6.521
	c0.566,2.198,1.227,4.365,1.628,6.158c0.402,1.793,0.545,3.214,0.828,4.838c0.284,1.625,0.707,3.455,1.112,5.345
	c0.405,1.892,0.793,3.843,1.159,5.769c0.365,1.926,0.71,3.827,1.004,5.725c0.294,1.898,0.538,3.792,0.843,5.609
	c0.305,1.818,0.671,3.563,0.954,5.115c0.284,1.554,0.484,2.916,0.732,4.326s0.541,2.866,0.785,4.1
	c0.244,1.234,0.438,2.246,1.094,4.946c0.656,2.701,1.775,7.092,2.78,11.03c1.004,3.938,1.894,7.426,2.79,10.538
	c0.897,3.114,1.802,5.854,2.293,7.279c0.491,1.423,0.569,1.531,0.609,1.585c0.039,0.053,0.039,0.053-0.494,0.253
	c-0.536,0.198-1.604,0.598-2.238,0.918c-0.634,0.32-0.833,0.565-1.033,0.855s-0.401,0.628-0.566,1.177
	c-0.164,0.548-0.293,1.31,0.004,2.464c0.298,1.155,1.022,2.705,1.812,4.674s1.643,4.358,2.299,6.025
	c0.656,1.665,1.116,2.609,1.676,3.354c0.559,0.744,1.22,1.289,1.535,1.579c0.315,0.291,0.286,0.327,0.238,1.95
	c-0.049,1.623-0.116,4.833-0.251,7.644c-0.135,2.81-0.335,5.221-0.615,7.372c-0.279,2.153-0.639,4.046-0.962,5.32
	c-0.322,1.273-0.609,1.926-0.731,2.582c-0.121,0.656-0.078,1.316,0.359,1.93c0.438,0.614,1.27,1.181,2.007,1.699
	c0.737,0.518,1.379,0.987,2.466,1.467c1.087,0.479,2.618,0.968,4.245,1.41s3.348,0.841,4.882,1.156
	c1.533,0.316,2.879,0.549,4.48,0.686c1.601,0.136,3.459,0.176,5.083,0.177c1.623,0.002,3.011-0.034,4.422-0.2
	c1.412-0.167,2.847-0.465,4.373-0.761s3.144-0.59,4.292-0.768c1.147-0.178,1.826-0.238,2.911-0.356
	c1.085-0.119,2.577-0.295,3.479-0.392c0.901-0.097,1.214-0.114,1.407-0.181c0.193-0.067,0.27-0.181,0.352-0.54
	c0.083-0.359,0.172-0.961,0.214-1.832c0.041-0.869,0.034-2.007,0.088-3.268c0.053-1.261,0.168-2.646,0.204-4.614
	s-0.007-4.523-0.165-7.465c-0.158-2.94-0.431-6.27-0.527-8.034s-0.019-1.966,0.154-2.096c0.172-0.129,0.438-0.186,1.062-0.548
	c0.624-0.363,1.607-1.03,2.25-1.524c0.642-0.496,0.942-0.818,1.306-1.109c0.361-0.29,0.785-0.548,1.168-0.964
	c0.385-0.417,0.729-0.99,0.951-1.59c0.222-0.599,0.323-1.224,0.366-2.479s0.028-3.142-0.065-4.835
	c-0.093-1.693-0.265-3.192-0.483-4.329c-0.219-1.138-0.484-1.912-0.908-2.601c-0.423-0.689-1.004-1.292-1.561-1.912
	c-0.555-0.62-1.087-1.259-1.405-1.991c-0.319-0.731-0.428-1.557-0.392-2.594c0.036-1.035,0.216-2.284,0.467-3.493
	s0.574-2.378,0.864-3.806c0.291-1.427,0.549-3.113,0.667-4.703c0.119-1.588,0.097-3.081,0.051-4.644
	c-0.047-1.564-0.119-3.2-0.299-4.747c-0.179-1.546-0.465-3.002-0.928-4.468c-0.463-1.469-1.102-2.945-1.673-4.319
	c-0.569-1.374-1.071-2.645-1.491-4.341s-0.757-3.82-0.882-5.986c-0.126-2.166-0.04-4.376-0.198-7.096
	c-0.157-2.718-0.56-5.947-0.886-8.874c-0.327-2.927-0.577-5.552-0.89-7.995c-0.313-2.442-0.685-4.702-0.95-6.432
	c-0.267-1.729-0.423-2.927-0.686-4.533c-0.262-1.607-0.628-3.623-0.983-6.005c-0.354-2.382-0.698-5.129-1.047-7.837
	c-0.348-2.709-0.699-5.377-1.037-7.853c-0.337-2.475-0.659-4.757-0.918-6.894c-0.258-2.139-0.451-4.133-0.663-5.89
	c-0.212-1.759-0.441-3.278-0.785-4.968c-0.345-1.689-0.804-3.548-1.22-5.112c-0.417-1.563-0.789-2.833-1.026-4.063
	c-0.236-1.23-0.337-2.422-0.455-3.791c-0.118-1.371-0.255-2.921-0.295-4.847c-0.039-1.927,0.019-4.229-0.035-6.17
	s-0.219-3.519-0.531-5.172c-0.312-1.653-0.771-3.383-1.355-4.914c-0.585-1.532-1.295-2.866-2.225-4.212
	c-0.929-1.345-2.076-2.7-2.916-3.748c-0.839-1.047-1.37-1.787-1.797-3.088c-0.427-1.302-0.75-3.168-1.137-5.352
	c-0.388-2.186-0.84-4.688-1.374-7.221c-0.534-2.533-1.151-5.093-1.636-7.285c-0.483-2.192-0.836-4.014-1.259-5.919
	c-0.424-1.904-0.918-3.893-1.392-5.983s-0.927-4.286-1.295-5.746c-0.37-1.459-0.656-2.184-0.969-3.3s-0.649-2.623-1.036-4.28
	c-0.388-1.656-0.825-3.464-1.26-5.24c-0.434-1.776-0.864-3.519-1.291-4.954c-0.428-1.435-0.85-2.561-1.389-4.028
	c-0.537-1.467-1.19-3.275-1.769-4.846c-0.577-1.57-1.079-2.905-1.786-4.534c-0.706-1.628-1.617-3.551-2.338-5.266
	c-0.722-1.714-1.252-3.221-1.858-4.885c-0.606-1.665-1.288-3.486-1.848-5.09c-0.559-1.604-0.998-2.988-1.848-5.951
	s-2.112-7.504-3.26-12.185c-1.148-4.682-2.181-9.503-3.229-13.204c-1.047-3.701-2.109-6.285-3.279-9.047
	c-1.169-2.761-2.445-5.703-4.031-8.96c-1.585-3.257-3.479-6.83-5.459-10.115c-1.98-3.286-4.046-6.285-6.321-9.147
	c-2.273-2.862-4.756-5.588-7.267-8.157c-2.51-2.568-5.051-4.978-7.39-6.836c-2.339-1.858-4.477-3.164-6.237-4.23
	c-1.761-1.065-3.146-1.89-5.126-2.801c-1.98-0.911-4.555-1.908-7.342-2.884c-2.787-0.975-5.786-1.929-8.631-2.783
	c-2.845-0.853-5.534-1.606-7.68-2.156c-2.146-0.548-3.744-0.893-4.667-1.13c-0.922-0.237-1.165-0.366-1.287-0.431
	c-0.122-0.063-0.122-0.063-0.122-0.063s0,0,0.15-0.704c0.151-0.703,0.452-2.109,0.353-3.3c-0.102-1.191-0.604-2.167-0.974-2.769
	c-0.368-0.604-0.605-0.832-0.763-0.972c-0.158-0.14-0.237-0.19-0.278-0.217c-0.042-0.028-0.045-0.031-0.047-0.033
	s-0.002-0.002-0.04-0.436c-0.038-0.435-0.112-1.302-0.491-2.429c-0.379-1.126-1.06-2.511-1.383-3.379
	c-0.322-0.868-0.286-1.22-0.372-1.775c-0.087-0.557-0.295-1.317-0.987-2.225c-0.692-0.907-1.869-1.961-2.852-2.754
	c-0.982-0.793-1.772-1.324-2.636-2.113c-0.865-0.789-1.806-1.836-2.548-2.564c-0.742-0.728-1.288-1.138-2.051-1.578
	c-0.765-0.441-1.747-0.915-3.103-1.353c-1.357-0.438-3.086-0.839-4.747-1.141c-1.66-0.301-3.253-0.501-5.505-0.713
	c-2.253-0.211-5.165-0.434-7.372-0.595c-2.206-0.162-3.705-0.262-4.444-0.312c-0.738-0.051-0.717-0.051-0.707-0.051
	c0.012,0,0.012,0,0.016,0c0.003,0,0.01,0-0.304-0.341c-0.313-0.34-0.949-1.021-1.489-1.82c-0.539-0.798-0.984-1.713-1.366-2.641
	c-0.382-0.927-0.701-1.867-1.274-3.8c-0.574-1.933-1.402-4.86-2.064-7.045c-0.662-2.184-1.157-3.626-2.082-5.039
	c-0.926-1.413-2.282-2.798-3.613-4.082c-1.33-1.285-2.636-2.469-4.014-3.441c-1.377-0.972-2.826-1.732-4.15-2.346
	c-1.323-0.613-2.521-1.08-3.432-1.443c-0.91-0.365-1.531-0.626-1.912-0.716c-0.381-0.091-0.52-0.01-0.705,0.092
	c-0.188,0.103-0.426,0.226-0.566,0.262c-0.143,0.036-0.188-0.016-0.28-0.186c-0.091-0.169-0.228-0.456-0.529-0.56
	c-0.303-0.103-0.771-0.022-1.403-0.002c-0.634,0.021-1.432-0.018-2.688-0.146c-1.258-0.127-2.971-0.343-4.877-0.536
	c-1.904-0.193-3.998-0.366-5.76-0.488c-1.762-0.122-3.189-0.194-4.785-0.352c-1.597-0.158-3.361-0.402-4.603-0.603
	c-1.241-0.201-1.958-0.358-3.135-0.397c-1.177-0.04-2.813,0.039-5.097,0.244c-2.286,0.204-5.22,0.535-7.759,0.782
	c-2.54,0.247-4.684,0.412-6.459,0.544c-1.776,0.133-3.182,0.233-4.28,0.313c-1.097,0.078-1.887,0.136-2.424,0.208
	c-0.539,0.072-0.825,0.158-1.103,0.33c-0.279,0.173-0.547,0.431-0.69,0.596c-0.144,0.165-0.162,0.237-0.261,0.165
	c-0.098-0.071-0.278-0.287-0.573-0.35c-0.296-0.062-0.708,0.027-1.813,0.392c-1.104,0.364-2.902,1.002-4.64,1.771
	c-1.737,0.767-3.417,1.664-4.897,2.625c-1.483,0.961-2.767,1.987-3.979,3.292c-1.211,1.306-2.353,2.891-3.295,4.505
	c-0.944,1.613-1.689,3.257-2.235,5.312c-0.545,2.056-0.89,4.523-1.209,6.479c-0.319,1.954-0.613,3.396-1.062,4.434
	c-0.449,1.036-1.051,1.667-1.604,2.234c-0.553,0.567-1.055,1.069-1.385,1.348c-0.33,0.277-0.487,0.332-1.504,0.491
	c-1.017,0.16-2.893,0.425-4.876,0.693c-1.984,0.27-4.075,0.542-6.413,0.98c-2.336,0.438-4.919,1.04-7.129,1.639
	c-2.208,0.599-4.046,1.194-5.563,1.793c-1.518,0.599-2.715,1.202-3.853,2.181c-1.137,0.979-2.213,2.335-3.002,3.35
	c-0.789,1.016-1.292,1.69-1.747,2.471c-0.456,0.782-0.864,1.672-1.051,2.314c-0.186,0.642-0.151,1.037-0.133,1.233
	c0.018,0.198,0.018,0.198-0.43,1.051c-0.449,0.854-1.345,2.562-1.958,3.867c-0.613,1.306-0.943,2.209-1.094,2.823
	c-0.151,0.613-0.122,0.936-0.28,1.18s-0.502,0.409-0.775,0.911c-0.273,0.502-0.474,1.341-0.443,2.115
	c0.03,0.772,0.292,1.479,0.45,1.96s0.212,0.735,0.239,0.862c0.027,0.128,0.027,0.128,0.027,0.128l0,0c0,0,0,0-0.519,0.135
	c-0.519,0.134-1.554,0.402-2.21,0.605C130.437,68.23,130.161,68.365,127.978,69.021z"/>
</svg>