<?xml version="1.0" encoding="UTF-8"?>
<!DOCTYPE svg PUBLIC "-//W3C//DTD SVG 1.1//EN" "http://www.w3.org/Graphics/SVG/1.1/DTD/svg11.dtd">
<!-- Creator: CorelDRAW 2018 (64 Bit Versão de avaliação) -->
<svg version="1.1" class="detalhes_moletom" xmlns="http://www.w3.org/2000/svg" xmlns:xlink="http://www.w3.org/1999/xlink" 
	width="460px" height="478px" fill-rule="evenodd" clip-rule="evenodd" viewBox="0 0 460000 478310" xml:space="preserve" 
	shape-rendering="geometricPrecision" text-rendering="geometricPrecision" image-rendering="optimizeQuality">
	<g class="barra">
		<path d="M124049 455210c-275,2135 -659,4456 -989,6131 -330,1676 -608,2705 -834,3570 -226,865 -401,1565 -628,2489 -226,923 -503,2069 -613,2704 -109,635 -51,759 237,1142 289,384 807,1026 2121,1694 1314,668 3423,1361 5299,1861 1876,500 3519,807 5427,1011 1909,205 4085,307 6289,383 2204,77 4438,128 6544,139 2106,11 4084,-18 7033,-18 2949,0 6868,29 10398,37 3529,7 6668,-8 9577,0 2908,7 5587,36 8923,142 3336,106 7329,288 10741,467 3413,179 6245,354 8898,456 2654,102 5128,132 7380,186 2252,55 4281,135 7186,230 2906,95 6686,205 10759,278 4074,73 8439,109 11764,142 3324,33 5609,62 8587,55 2979,-8 6650,-51 10624,-81 3975,-29 8253,-43 11837,-102 3584,-58 6474,-160 9620,-288 3146,-128 6548,-281 10168,-380 3621,-98 7460,-142 11340,-211 3880,-70 7799,-165 11248,-212 3449,-48 6427,-48 9066,-161 2639,-113 4938,-339 7446,-587 2507,-249 5222,-518 7584,-1008 2361,-489 4368,-1197 5901,-1828 1533,-631 2592,-1186 3281,-1683 690,-496 1011,-934 1190,-1251 179,-318 216,-515 44,-1347 -172,-832 -551,-2299 -989,-4113 -438,-1814 -934,-3975 -1296,-5500 -361,-1526 -587,-2417 -898,-4157 -310,-1741 -704,-4333 -1113,-6836 -408,-2504 -832,-4920 -1018,-6570 -186,-1649 -135,-2533 -173,-3171 -39,-639 -167,-1033 -294,-1338 -47,-112 -94,-212 -135,-305 -275,203 -620,399 -1084,581 -1101,434 -2875,793 -5027,1004 -2153,211 -4684,274 -8496,430 -3813,156 -8907,406 -13118,562 -4211,157 -7539,219 -10875,344 -3336,125 -6680,313 -10234,461 -3555,149 -7321,258 -11110,438 -3789,179 -7601,429 -10648,640 -3047,211 -5329,383 -8524,469 -3195,86 -7305,86 -12602,148 -5297,63 -11781,188 -17906,133 -6125,-54 -11891,-289 -17500,-601 -5610,-313 -11063,-703 -16329,-1071 -5266,-367 -10344,-710 -16215,-992 -5871,-281 -12536,-500 -18055,-554 -5520,-55 -9895,54 -13348,113 -3454,58 -5985,66 -8973,23 -2989,-43 -6434,-136 -9079,-328 -2645,-191 -4488,-480 -5629,-852 -628,-204 -1043,-433 -1362,-673 -77,439 -187,779 -252,1192 -95,603 -95,1362 -106,2453 -11,1091 -33,2515 -109,3916 -77,1402 -208,2781 -358,4446 -149,1664 -317,3613 -593,5748z"/>
	</g>
	<g class="manga_raglan">
		<path d="M7405 449479c431,328 548,387 606,1467 58,1080 58,3183 80,5606 22,2424 66,5168 241,7285 175,2117 482,3606 573,4752 92,1146 -33,1949 124,2646 157,697 595,1288 1092,1821 496,533 1051,1007 1752,1377 701,371 1550,637 3083,1156 1533,520 3753,1294 5421,1761 1667,467 2784,628 5014,712 2230,84 5573,91 8745,-518 3172,-610 6172,-1836 8376,-2844 2204,-1007 3613,-1795 5117,-2762 1504,-967 3102,-2113 4281,-3340 1179,-1226 1938,-2533 2376,-3383 438,-850 555,-1245 526,-1715 -30,-471 -205,-1019 -497,-2026 -292,-1007 -701,-2474 -1040,-3726 -339,-1252 -610,-2289 -876,-3789 -266,-1500 -529,-3463 -752,-5164 -223,-1701 -405,-3139 -511,-4117 -106,-978 -135,-1496 -150,-1756 -9,-178 -13,-233 101,-505 52,-124 128,-293 239,-538 354,-785 1062,-2354 1792,-4201 730,-1847 1482,-3971 2062,-5424 581,-1452 989,-2233 1270,-3091 281,-858 435,-1792 460,-2518 26,-727 -76,-1245 -616,-1905 -541,-661 -1519,-1464 -2191,-1953 -671,-489 -1036,-664 -1218,-752 -183,-87 -183,-87 -183,-87 0,0 0,0 278,-1106 277,-1106 831,-3318 1372,-5438 540,-2121 1065,-4150 1591,-6387 525,-2237 1051,-4683 1442,-6723 390,-2040 646,-3675 994,-5334 349,-1659 790,-3341 1062,-4898 272,-1556 374,-2987 546,-4389 172,-1401 412,-2774 649,-4328 238,-1555 471,-3292 709,-4949 237,-1657 478,-3234 657,-4738 178,-1503 295,-2934 459,-4248 165,-1313 376,-2511 581,-4007 204,-1496 401,-3292 664,-5077 263,-1784 591,-3558 934,-5471 343,-1912 701,-3963 1088,-5982 387,-2018 803,-4003 1244,-6372 442,-2369 909,-5120 1311,-7215 401,-2095 737,-3533 1018,-5347 281,-1814 507,-4004 668,-5546 160,-1542 255,-2436 330,-3170 75,-733 130,-1306 170,-1620 40,-314 65,-369 562,-763 496,-394 1464,-1128 2444,-1907 980,-779 1972,-1604 2677,-2487 704,-883 1120,-1825 1354,-2681 233,-856 284,-1626 147,-2549 -136,-924 -461,-2000 -762,-2893 -301,-892 -579,-1600 -811,-2374 -231,-773 -417,-1613 -549,-2149 -131,-537 -208,-771 -246,-887 -38,-117 -38,-117 407,-409 445,-292 1336,-876 2348,-1610 1013,-733 2148,-1617 2948,-2372 799,-755 1262,-1383 1728,-2128 465,-744 932,-1606 1330,-2693 398,-1088 726,-2402 1354,-4997 628,-2595 1555,-6471 2697,-10475 1142,-4003 2500,-8135 3989,-12295 1489,-4161 3110,-8351 4555,-12446 1445,-4095 2716,-8095 3584,-10631 869,-2537 1336,-3610 1865,-4424 529,-814 1121,-1369 1675,-1788 555,-420 1074,-705 2015,-1135 942,-431 2307,-1008 3341,-1821 1035,-815 1739,-1866 2103,-2736 363,-870 385,-1560 228,-2135 -157,-575 -493,-1035 -668,-1347 -175,-312 -190,-476 -276,-909 -86,-432 -243,-1133 -267,-1610 -25,-477 83,-731 121,-1059 39,-327 7,-728 9,-931 0,-3 0,-6 0,-9 10,-870 20,-1741 29,-2811 8,-1074 16,-2347 -261,-3581 -278,-1235 -840,-2430 -1133,-3075 -293,-645 -317,-738 -239,-1402 78,-664 258,-1899 277,-3106 20,-1207 -121,-2387 -160,-3840 -39,-1453 24,-3180 -97,-4668 -122,-1488 -426,-2738 -786,-3961 -359,-1223 -773,-2418 -1113,-3742 -340,-1325 -606,-2778 -824,-5415 -219,-2636 -391,-6457 -39,-10171 352,-3716 1226,-7325 2305,-11528 1078,-4204 2359,-9000 4179,-13422 1821,-4423 4180,-8469 6172,-12204 1993,-3734 3618,-7156 5485,-10859 1867,-3703 3976,-7688 6500,-11946 2523,-4258 5461,-8789 7711,-12211 2250,-3422 3812,-5734 4953,-7438 892,-1331 1525,-2290 2103,-3167 -172,-201 -345,-403 -519,-607 -1141,-1336 -2359,-2766 -3519,-4250 -1161,-1485 -2262,-3024 -3497,-4899 -1234,-1875 -2602,-4086 -3574,-5908 -972,-1821 -1549,-3254 -2127,-4687 -44,155 -131,79 -870,239 -739,161 -2130,559 -3478,956 -1349,398 -2655,796 -4304,1294 -1647,498 -3636,1097 -5151,1571 -1514,475 -2555,825 -3730,1216 -1175,390 -2485,821 -3730,1254 -1245,432 -2423,866 -3695,1386 -1272,520 -2637,1126 -3836,1708 -1199,582 -2232,1141 -3292,1688 -1061,548 -2148,1084 -3250,1750 -1102,666 -2219,1462 -3212,2185 -993,723 -1861,1372 -2850,2126 -990,753 -2099,1611 -3121,2487 -1022,876 -1956,1770 -2710,2582 -754,812 -1327,1542 -1996,2256 -670,713 -1437,1410 -2097,2115 -661,704 -1216,1416 -1836,2153 -620,737 -1307,1500 -1953,2205 -646,704 -1251,1350 -1879,2153 -628,803 -1277,1763 -1931,2615 -653,852 -1310,1597 -1942,2389 -631,792 -1237,1631 -1715,2296 -478,665 -828,1156 -1290,1819 -461,663 -1033,1498 -1536,2238 -503,741 -938,1387 -1374,2086 -436,699 -874,1451 -1314,2261 -440,810 -881,1679 -2060,4166 -1179,2487 -3095,6593 -5236,13187 -2140,6593 -4505,15673 -6622,22856 -2117,7182 -3985,12467 -5913,17767 -1927,5299 -3912,10613 -5781,15854 -1868,5241 -3620,10409 -5357,16277 -1738,5869 -3460,12439 -4862,18176 -1401,5737 -2482,10642 -3577,14876 -1094,4234 -2204,7796 -3051,11621 -847,3825 -1430,7912 -1883,10131 -453,2219 -774,2570 -1796,3927 -1021,1358 -2744,3723 -3883,6438 -1138,2716 -1693,5781 -2248,9767 -555,3985 -1110,8891 -1723,13416 -613,4526 -1284,8672 -1883,13066 -599,4394 -1124,9037 -1328,12949 -205,3913 -88,7095 -351,11752 -263,4657 -905,10789 -1416,16103 -511,5313 -890,9810 -1182,14204 -292,4395 -497,8687 -745,13008 -248,4321 -540,8671 -730,11256 -190,2583 -277,3401 -803,4642 -525,1241 -1489,2905 -1649,4321 -161,1416 481,2584 657,4599 175,2014 -117,4876 -59,7343 59,2467 467,4540 745,6474 277,1935 423,3730 321,5760 -102,2029 -453,4292 -562,6657 -110,2365 22,4832 233,7102 212,2270 504,4343 1205,5840 700,1496 1810,2416 2737,3175 927,759 1672,1357 2102,1686zm445730 -7382c69,-92 168,-213 305,-382 482,-591 1446,-1774 2165,-2982 719,-1208 1193,-2441 1492,-3719 300,-1277 424,-2599 369,-4022 -55,-1423 -288,-2949 -567,-4033 -280,-1084 -604,-1726 -767,-2047 -162,-322 -162,-322 334,-905 496,-584 1489,-1752 2208,-2811 719,-1058 1164,-2007 1288,-3361 124,-1354 -73,-3113 -386,-5544 -314,-2431 -745,-5533 -1566,-12365 -821,-6832 -2033,-17395 -2639,-25289 -606,-7894 -606,-13121 -854,-19938 -248,-6818 -745,-15227 -1062,-21293 -318,-6065 -456,-9788 -843,-13142 -387,-3354 -1022,-6340 -1515,-8577 -493,-2237 -843,-3727 -708,-7022 135,-3296 756,-8398 993,-12438 237,-4041 91,-7019 -420,-9573 -511,-2555 -1387,-4687 -2161,-6139 -773,-1453 -1445,-2227 -2372,-3343 -927,-1117 -2109,-2577 -3160,-4285 -1052,-1708 -1971,-3665 -2979,-6212 -1007,-2548 -2102,-5686 -2971,-9263 -868,-3577 -1510,-7591 -2416,-11876 -905,-4285 -2073,-8840 -3219,-13394 -1146,-4555 -2270,-9110 -3408,-13388 -1139,-4277 -2293,-8277 -3679,-12394 -1387,-4117 -3008,-8351 -4373,-12139 -1365,-3788 -2474,-7132 -3409,-10321 -934,-3190 -1693,-6227 -2386,-9840 -694,-3613 -1322,-7803 -1920,-11095 -599,-3292 -1168,-5686 -2008,-8847 -839,-3160 -1948,-7087 -3467,-11540 -1518,-4453 -3445,-9431 -5409,-13701 -1963,-4270 -3963,-7833 -5635,-10723 -1671,-2890 -3014,-5110 -4781,-7548 -1766,-2438 -3956,-5095 -6299,-7722 -2343,-2628 -4840,-5227 -7260,-7340 -2419,-2113 -4762,-3741 -6941,-5139 -2179,-1398 -4194,-2566 -6398,-3587 -2205,-1022 -4599,-1898 -7442,-2836 -2843,-938 -6135,-1938 -9690,-3030 -3555,-1091 -7372,-2273 -10024,-3091 -2652,-817 -4137,-1270 -4880,-1496 -742,-226 -742,-226 -742,-226 0,0 0,0 105,-387 -158,323 -317,645 -502,1135 -184,489 -395,1146 -797,2056 -403,910 -996,2074 -1672,3215 -676,1140 -1434,2258 -2172,3281 -739,1024 -1457,1953 -2301,3024 -844,1070 -1813,2281 -2754,3399 -810,960 -1600,1852 -2352,2687 1714,2584 3455,5207 5515,8265 2259,3351 4899,7227 7743,11750 2844,4523 5890,9696 8328,13907 2437,4211 4266,7460 5984,11117 1719,3656 3329,7719 4719,11320 1391,3602 2563,6743 3391,9883 828,3141 1312,6282 1570,8524 258,2242 289,3586 383,4828 94,1242 250,2383 180,4344 -70,1960 -367,4741 -680,7648 -312,2906 -640,5937 -879,8961 -238,3023 -386,6039 -495,8540 -110,2500 -180,4484 -258,6625 -78,2140 -164,4437 -227,6684 -62,2246 -101,4441 -27,5828 74,1387 262,1965 398,2535 137,570 223,1133 118,1571 -106,437 -403,750 -800,1230 -396,480 -892,1129 -1261,1715 -369,586 -611,1109 -660,1777 -49,668 95,1481 267,2084 172,604 370,998 569,1392 60,56 180,195 357,392 177,197 411,452 533,593 123,141 133,166 139,228 5,62 5,161 -93,721 -99,560 -296,1582 -433,2447 -136,865 -213,1573 -140,2301 73,728 296,1476 600,2142 305,667 692,1250 1444,1694 751,443 1868,746 2617,922 748,175 1127,222 1607,399 480,177 1061,484 1515,984 454,500 783,1193 1153,1976 371,783 783,1655 1172,2612 389,956 753,1996 1111,2959 358,964 708,1851 1106,2902 398,1051 843,2266 1190,3270 347,1004 595,1796 936,2628 341,832 775,1704 1168,2757 392,1053 743,2287 1150,3349 407,1062 870,1952 1326,3029 457,1077 906,2339 1300,3389 394,1049 733,1885 1087,2721 354,835 723,1671 1022,2489 299,817 529,1617 903,2554 375,938 893,2015 1365,2959 473,943 900,1754 1227,2356 326,602 553,996 686,1616 133,621 173,1468 308,3007 135,1539 365,3771 546,5916 181,2145 312,4204 783,5850 471,1646 1281,2879 2064,3987 782,1108 1538,2089 2343,2910 805,822 1659,1482 2013,1825 354,343 208,369 -17,805 -224,436 -527,1283 -792,2469 -264,1186 -491,2712 -553,4226 -62,1515 40,3019 212,4355 172,1335 412,2503 785,3569 372,1066 876,2029 1419,2894 544,865 1128,1632 1953,2602 825,971 1891,2147 2661,3260 770,1113 1244,2164 1587,3416 343,1251 555,2704 712,4029 157,1325 259,2522 551,3839 292,1318 774,2756 1252,5033 478,2278 952,5394 1369,7825 416,2431 773,4176 1084,6113 310,1938 572,4070 813,5840 241,1770 460,3179 635,4566 176,1387 307,2752 467,4120 161,1369 351,2741 449,4496 99,1756 106,3895 398,5887 292,1993 869,3840 1113,5070 245,1230 157,1843 -21,2653 -179,811 -449,1818 -738,2792 -288,975 -594,1916 -784,3030 -190,1113 -263,2397 -296,3938 -33,1540 -26,3335 99,5379 124,2044 364,4336 704,6234 339,1898 777,3401 1011,4219 234,817 263,949 73,1442 -190,492 -599,1346 -825,2156 -226,811 -270,1577 -248,2413 22,836 109,1741 350,2763 241,1022 635,2160 1022,3091 387,931 766,1653 1321,2423 555,770 1285,1588 1785,2143 364,404 607,668 764,851 58,69 105,126 141,174 135,179 135,245 41,997 -95,752 -285,2190 -539,3288 -254,1098 -571,1858 -734,2347 -162,489 -169,708 -93,1350 77,642 237,1708 646,2821 409,1113 1066,2274 1759,3270 694,997 1424,1829 2373,2665 949,836 2117,1675 2971,2237 854,562 1394,847 1981,1120 588,274 1223,537 1942,960 719,424 1522,1008 2942,1603 1419,595 3456,1200 5244,1492 1789,292 3329,270 4957,277 1627,8 3343,44 5281,-54 1938,-99 4098,-332 5858,-705 1759,-372 3116,-883 4186,-1230 1069,-346 1850,-529 2664,-948 814,-420 1661,-1077 2226,-1683 566,-606 851,-1161 1070,-2106 219,-945 372,-2281 565,-3839 194,-1559 427,-3340 493,-5245 66,-1905 -36,-3934 -131,-5186 -95,-1252 -183,-1726 -227,-1964 -31,-169 -40,-217 133,-446z"/>
	</g>	
	<g class="punho">
		<path d="M22237 453769c-2051,-164 -4113,-500 -6277,-1039 -2165,-539 -4430,-1282 -5873,-1857 -1443,-576 -2062,-985 -2682,-1394 431,328 548,387 606,1467 58,1080 58,3183 80,5606 22,2424 66,5168 241,7285 175,2117 482,3606 573,4752 92,1146 -33,1949 124,2646 157,697 595,1288 1092,1821 496,533 1051,1007 1752,1377 701,371 1550,637 3083,1156 1533,520 3753,1294 5421,1761 1667,467 2784,628 5014,712 2230,84 5573,91 8745,-518 3172,-610 6172,-1836 8376,-2844 2204,-1007 3613,-1795 5117,-2762 1504,-967 3102,-2113 4281,-3340 1179,-1226 1938,-2533 2376,-3383 438,-850 555,-1245 526,-1715 -30,-471 -205,-1019 -497,-2026 -292,-1007 -701,-2474 -1040,-3726 -339,-1252 -610,-2289 -876,-3789 -266,-1500 -529,-3463 -752,-5164 -223,-1701 -405,-3139 -511,-4117 -106,-978 -135,-1496 -150,-1756 -9,-178 -13,-233 101,-505 -43,40 -109,122 -252,301 -266,332 -797,996 -1437,1754 -641,757 -1390,1609 -2105,2261 -715,653 -1395,1106 -3036,1891 -1640,785 -4242,1903 -7051,2840 -2808,937 -5824,1695 -8352,2078 -2527,383 -4566,391 -6617,227zm386370 1380c694,997 1424,1829 2373,2665 949,836 2117,1675 2971,2237 854,562 1394,847 1981,1120 588,274 1223,537 1942,960 719,424 1522,1008 2942,1603 1419,595 3456,1200 5244,1492 1789,292 3329,270 4957,277 1627,8 3343,44 5281,-54 1938,-99 4098,-332 5858,-705 1759,-372 3116,-883 4186,-1230 1069,-346 1850,-529 2664,-948 814,-420 1661,-1077 2226,-1683 566,-606 851,-1161 1070,-2106 219,-945 372,-2281 565,-3839 194,-1559 427,-3340 493,-5245 66,-1905 -36,-3934 -131,-5186 -95,-1252 -183,-1726 -227,-1964 -31,-169 -40,-217 133,-446 -667,822 -1333,1645 -2827,2845 -1493,1200 -3814,2778 -6154,3786 -2340,1008 -4699,1445 -7230,1656 -2532,211 -5235,196 -7903,-58 -2668,-254 -5301,-746 -7446,-1317 -2144,-570 -3800,-1218 -5215,-2035 -1414,-816 -2586,-1801 -3801,-2601 -1214,-801 -2472,-1419 -3342,-1966 -869,-548 -1350,-1026 -1831,-1505 58,69 105,126 141,174 135,179 135,245 41,997 -95,752 -285,2190 -539,3288 -254,1098 -571,1858 -734,2347 -162,489 -169,708 -93,1350 77,642 237,1708 646,2821 409,1113 1066,2274 1759,3270z"/>
	</g>	
	<g class="capuz">
		<path d="M132197 72055c578,1433 1155,2866 2127,4687 972,1822 2340,4033 3574,5908 1235,1875 2336,3414 3497,4899 1160,1484 2378,2914 3519,4250 174,204 347,406 519,607 953,1112 1891,2187 3036,3381 1352,1411 2992,2989 4625,4641 1633,1653 3258,3379 5051,4993 1793,1613 3754,3113 5535,4578 1782,1465 3384,2894 5399,4438 2016,1543 4446,3199 6403,4648 1957,1450 3441,2692 4914,3805 1473,1114 2934,2098 4617,3313 1684,1215 3590,2660 5434,4082 1844,1422 3625,2820 5094,3922 1469,1102 2625,1906 3594,2531 969,625 1750,1071 2285,1360 535,289 824,421 1078,457 254,35 473,-28 1078,168 606,195 1598,648 2149,1007 551,360 660,626 1609,802 950,175 2739,261 4903,351 2164,90 4703,183 7199,211 2496,27 4950,-12 7430,16 2481,27 4989,121 7700,242 2711,121 5625,269 8547,320 2922,51 5852,4 7953,-164 2102,-168 3375,-457 4227,-746 852,-289 1281,-578 1887,-797 605,-219 1387,-367 2082,-519 695,-153 1305,-309 1898,-625 594,-317 1172,-794 1993,-1387 820,-594 1883,-1305 3101,-2137 1219,-832 2594,-1785 4016,-2871 1422,-1086 2891,-2305 4313,-3446 1422,-1140 2797,-2203 4113,-3226 1316,-1024 2575,-2008 4051,-3106 1477,-1098 3172,-2309 4875,-3559 1703,-1250 3414,-2539 5063,-3801 1648,-1262 3234,-2496 4910,-3886 1676,-1391 3442,-2938 5090,-4422 1649,-1485 3180,-2907 4715,-4305 1536,-1399 3074,-2774 4551,-4274 1477,-1500 2891,-3125 4000,-4375 1110,-1250 1914,-2125 2774,-3075 120,-132 241,-266 363,-402 752,-835 1542,-1727 2352,-2687 941,-1118 1910,-2329 2754,-3399 844,-1071 1562,-2000 2301,-3024 738,-1023 1496,-2141 2172,-3281 676,-1141 1269,-2305 1672,-3215 402,-910 613,-1567 797,-2056 185,-490 344,-812 502,-1135 106,-387 318,-1161 318,-2227 0,-1065 -212,-2423 -632,-3303 -419,-879 -1047,-1281 -1416,-1522 -368,-240 -478,-321 -591,-846 -113,-526 -230,-1497 -794,-2858 -564,-1361 -1575,-3113 -2168,-4745 -593,-1631 -768,-3142 -1122,-4708 -354,-1566 -887,-3186 -1303,-4518 -416,-1332 -716,-2376 -1358,-3288 -642,-913 -1628,-1694 -3149,-2526 -1522,-832 -3581,-1715 -5913,-2526 -2332,-810 -4938,-1547 -7405,-2025 -2467,-478 -4796,-697 -7880,-1073 -3084,-376 -6924,-909 -9343,-1223 -2420,-314 -3420,-409 -3920,-460 -500,-51 -500,-58 -500,-65 0,-8 0,-15 -91,-1103 -92,-1087 -274,-3255 -580,-5456 -307,-2201 -738,-4434 -1380,-6299 -642,-1865 -1497,-3362 -2643,-4993 -1146,-1631 -2584,-3398 -4094,-4858 -1512,-1460 -3096,-2613 -4570,-3536 -1475,-924 -2839,-1617 -4110,-2192 -1270,-575 -2445,-1031 -3085,-1250 -641,-219 -747,-201 -885,-124 -139,77 -311,211 -431,288 -121,77 -190,95 -347,-18 -157,-113 -401,-358 -593,-547 -192,-190 -330,-325 -677,-431 -347,-106 -902,-183 -1680,-271 -778,-88 -1780,-189 -3108,-389 -1327,-200 -2980,-499 -4293,-654 -1312,-155 -2283,-166 -3398,-241 -1115,-75 -2374,-213 -3825,-451 -1450,-237 -3093,-572 -4640,-806 -1548,-234 -3000,-365 -4413,-444 -1412,-78 -2784,-104 -4148,35 -1363,139 -2717,442 -4069,706 -1352,265 -2703,491 -3980,666 -1277,176 -2482,300 -3770,433 -1289,133 -2661,276 -3922,409 -1261,133 -2410,257 -3772,441 -1361,184 -2934,429 -4323,584 -1388,155 -2593,221 -3252,376 -658,155 -772,400 -857,599 -86,199 -144,352 -276,321 -132,-31 -336,-247 -566,-389 -230,-142 -485,-212 -757,-151 -272,60 -560,250 -1020,503 -460,254 -1091,571 -1819,924 -729,352 -1553,739 -2342,1159 -788,419 -1540,872 -2281,1366 -741,495 -1471,1031 -2217,1686 -746,656 -1509,1429 -2188,2143 -679,713 -1274,1367 -1889,2098 -615,732 -1250,1542 -1763,2347 -512,805 -903,1604 -1356,2531 -452,927 -967,1982 -1353,2977 -387,994 -647,1929 -919,2934 -271,1005 -556,2082 -750,3064 -193,982 -295,1869 -430,2664 -135,796 -303,1500 -438,2115 -135,615 -237,1141 -290,1447 -53,307 -57,395 -144,469 -88,75 -259,137 -1081,256 -821,118 -2292,294 -3786,430 -1495,137 -3013,236 -4993,409 -1980,174 -4422,422 -6506,626 -2084,205 -3810,365 -5273,475 -1464,109 -2665,168 -4041,425 -1376,257 -2927,713 -4201,1117 -1274,403 -2270,753 -3297,1345 -1027,591 -2086,1423 -2747,2215 -660,792 -923,1544 -1301,2369 -377,824 -870,1722 -1452,2607 -582,885 -1254,1758 -1794,2610 -540,852 -949,1684 -1352,2538 -404,854 -801,1730 -1075,2564 -274,834 -424,1626 -717,2444 -294,817 -732,1660 -1057,2361 -325,701 -537,1259 -677,1728 -140,469 -210,849 -257,1075 -48,227 -73,299 -369,644 -296,345 -861,962 -1332,1610 -471,648 -847,1326 -1075,2044 -228,717 -308,1472 -301,2264 7,792 102,1621 150,2229 47,607 47,994 3,1149z"/>
	</g>	
</svg>